<svg version="1.2" xmlns="http://www.w3.org/2000/svg" viewBox="0 0 96 96" width="96" height="96"><style></style><path fill-rule="evenodd" d="m90.3 16.5q1.1 0.4 1.9 1.3q0.9 0.8 1.3 1.9q0.5 1.1 0.5 2.3v52q0 1.2-0.5 2.3q-0.4 1.1-1.3 1.9q-0.8 0.9-1.9 1.3q-1.1 0.5-2.3 0.5h-80q-1.2 0-2.3-0.5q-1.1-0.4-1.9-1.3q-0.9-0.8-1.3-1.9q-0.5-1.1-0.5-2.3v-52q0-1.2 0.5-2.3q0.4-1.1 1.3-1.9q0.8-0.9 1.9-1.3q1.1-0.5 2.3-0.5h80q1.2 0 2.3 0.5zm-83.1 3.7q-0.3 0.1-0.6 0.4q-0.3 0.3-0.4 0.6q-0.2 0.4-0.2 0.8v3.9l40.9 27.9q0.2 0.2 0.5 0.3q0.3 0.1 0.6 0.1q0.3 0 0.6-0.1q0.3-0.1 0.5-0.3l40.9-27.9v-3.9q0-0.4-0.2-0.8q-0.1-0.3-0.4-0.6q-0.3-0.3-0.6-0.4q-0.4-0.2-0.8-0.2h-80q-0.4 0-0.8 0.2zm81.6 55.6q0.3-0.1 0.6-0.4q0.3-0.3 0.4-0.6q0.2-0.4 0.2-0.8v-43.2l-25.6 17.5l18 16.4c0.4 0.3 0.6 0.8 0.6 1.4c0.1 0.5-0.1 1-0.5 1.4c-0.3 0.4-0.8 0.6-1.4 0.7c-0.5 0-1-0.2-1.4-0.5l-18.7-17l-9.6 6.5q-0.7 0.5-1.6 0.8q-0.9 0.2-1.8 0.2q-0.9 0-1.7-0.2q-0.9-0.3-1.6-0.8l-9.6-6.5l-18.7 17c-0.4 0.3-0.9 0.5-1.5 0.5c-0.5-0.1-1-0.3-1.4-0.7c-0.3-0.4-0.5-0.9-0.5-1.4c0.1-0.6 0.3-1.1 0.7-1.4l18-16.4l-25.7-17.5v43.2q0 0.4 0.2 0.8q0.1 0.3 0.4 0.6q0.3 0.3 0.6 0.4q0.4 0.2 0.8 0.2h80q0.4 0 0.8-0.2z"/></svg>