<svg version="1.2" xmlns="http://www.w3.org/2000/svg" viewBox="0 0 100 100" width="100" height="100"><style></style><path fill-rule="evenodd" d="m69.7 0.5c4.8 0 8.8 4 8.8 8.9v81.2c0 4.9-4 8.9-8.8 8.9h-39.4c-4.8 0-8.8-4-8.8-8.9v-81.2c0-4.9 4-8.9 8.8-8.9zm-43.7 8.9v9.5h48.1v-9.5c0-2.4-2-4.4-4.4-4.4h-39.3c-2.4 0-4.4 2-4.4 4.4zm14.7 2.5c0 1.3-1.1 2.4-2.4 2.4c-1.3 0-2.3-1.1-2.3-2.4c0-1.3 1-2.3 2.3-2.3c1.3 0 2.4 1 2.4 2.3zm17.8-2.2c1.3 0 2.3 1 2.3 2.2c0 1.3-1 2.3-2.3 2.3h-12.4c-1.3 0-2.3-1-2.3-2.3c0-1.2 1-2.2 2.3-2.2zm-32.5 69.2h48v-55.6h-48zm0 11.8c0 2.4 1.9 4.3 4.3 4.3h39.4c2.4 0 4.3-1.9 4.3-4.3v-7.3h-48zm26.3-3.9c1.3 0 2.3 1 2.3 2.2c0 1.3-1 2.3-2.3 2.3h-4.6c-1.3 0-2.3-1-2.3-2.3c0-1.2 1-2.2 2.3-2.2z"/></svg>