<?xml version="1.0" encoding="utf-8"?>
<!-- Generator: Adobe Illustrator 16.0.0, SVG Export Plug-In . SVG Version: 6.00 Build 0)  -->
<!DOCTYPE svg PUBLIC "-//W3C//DTD SVG 1.1//EN" "http://www.w3.org/Graphics/SVG/1.1/DTD/svg11.dtd">
<svg version="1.1" id="Layer_1" xmlns="http://www.w3.org/2000/svg" xmlns:xlink="http://www.w3.org/1999/xlink" x="0px" y="0px"
	 width="512px" height="512px" viewBox="0 0 512 512" enable-background="new 0 0 512 512" xml:space="preserve">
<title>chevron</title>
<path d="M153.174,23.126c-2.347,0-4.613,0.841-6.425,2.654c-3.625,3.625-3.625,9.193,0,12.819L343.351,235.59
	c11.185,11.199,11.136,29.635-0.063,40.82L146.749,473.398c-3.625,3.625-3.625,9.195,0,12.82v0.031h0.032
	c1.764,1.781,4.014,2.623,6.36,2.623h0.098c2.282-0.018,4.532-0.842,6.345-2.654L356.186,289.26
	c18.387-18.387,18.371-48.135,0-66.489L159.584,25.78c-1.797-1.797-4.047-2.638-6.394-2.654H153.174z"/>
</svg>
