<svg version="1.2" xmlns="http://www.w3.org/2000/svg" viewBox="0 0 512 512" width="512" height="512"><style></style><path  d="m236.1 475.2c-45.5 0-89.9-14.1-127-40.5c-37-26.4-65-63.6-79.9-106.6c-14.9-43-16.1-89.6-3.3-133.2c12.8-43.7 38.9-82.3 74.6-110.5c35.7-28.1 79.4-44.5 124.8-46.7c45.5-2.2 90.5 9.8 128.8 34.4c2.4 1.3 4.1 3.6 4.7 6.3c0.7 2.6 0.2 5.4-1.3 7.7c-1.4 2.3-3.8 3.9-6.5 4.4c-2.7 0.5-5.4-0.1-7.7-1.7c-37.2-23.8-81.3-34.6-125.3-30.6c-44 4.1-85.4 22.6-117.7 52.8c-32.3 30.1-53.6 70.2-60.7 113.8c-7 43.7 0.8 88.4 22 127.1c21.2 38.8 54.7 69.4 95.3 87c40.5 17.6 85.7 21.2 128.5 10.2c42.9-10.9 80.8-35.8 107.9-70.7c27.1-34.9 41.8-77.9 41.8-122.1v-19.9c-0.6-5.5 3.4-10.4 8.9-10.9c5.5-0.6 10.4 3.4 11 8.9v21.9c0 58.1-23.1 113.7-64.1 154.8c-41.1 41-96.8 64.1-154.8 64.1z"/><path  d="m266 301.1c-2.7 0-5.2-1.1-7-3l-89.6-89.5c-3.9-3.9-3.9-10.2 0-14.1c4-3.9 10.3-3.9 14.2 0l82.4 81.7l211.9-210.9c3.9-3.9 10.2-3.9 14.1 0c3.9 3.9 3.9 10.2 0 14.1l-218.9 218.9c-1.9 1.9-4.5 2.9-7.1 2.8z"/></svg>