<svg version="1.2" xmlns="http://www.w3.org/2000/svg" viewBox="0 0 512 512" width="512" height="512"><style></style><path fill-rule="evenodd" d="m236.7 310.1c-4.2 0-7.6-3.4-7.6-7.5v-10.4c0-4.1-3.4-7.5-7.5-7.5h-2.1c-4.2 0-7.6 3.4-7.6 7.5v49.9c0 4.1-3.4 7.5-7.5 7.5h-25.4c-3.9 0-7.2 3-7.5 6.9c-1.5 16.7 0.1 36.1 0.1 52.5h-139.6c0-77.3 9.7-118.9 22.1-201.4c0-9.6 7.7-17.3 17.3-17.3h36.5v-13.5c0-8.3 6.8-15.1 15.1-15.1h73.8c8.3 0 15.1 6.8 15.1 15.1v21.5c0 4.1 3.4 7.5 7.5 7.5h2.2c4.1 0 7.5-3.4 7.5-7.5v-21.5c0-8.3 6.8-15.1 15.1-15.1h23.6c8.3 0 15.1 6.8 15.1 15.1v21.5c0 4.1 3.4 7.5 7.5 7.5h2.2c4.1 0 7.5-3.4 7.5-7.5v-21.5c0-8.3 6.8-15.1 15.1-15.1h73.8c8.3 0 15.1 6.8 15.1 15.1v13.5h36.5c9.6 0 17.4 7.7 17.4 17.3c12.4 82.5 22 124.1 22 201.4h-139.5c0-16.5 1.5-35.7 0-52.5c-0.3-3.9-3.5-6.9-7.5-6.9h-25.4c-4.1 0-7.5-3.4-7.5-7.5v-49.9c0-4.1-3.4-7.5-7.5-7.5h-2.2c-4.1 0-7.5 3.4-7.5 7.5v10.4c0 4.1-3.4 7.5-7.5 7.5zm53.7-47.4h2.2c4.1 0 7.5-3.4 7.5-7.5v-10.5c0-4.2-3.4-7.6-7.5-7.6h-2.2c-4.1 0-7.5 3.4-7.5 7.6v10.5c0 4.1 3.4 7.5 7.5 7.5zm-71 0h2.2c4.1 0 7.5-3.4 7.5-7.5v-10.5c0-4.2-3.4-7.6-7.5-7.6h-2.2c-4.1 0-7.5 3.4-7.5 7.6v10.5c0 4.1 3.4 7.5 7.5 7.5zm-93.4-214.2h74.1c4.6 0 8.6 1.9 11.6 5.5c3 3.6 4 7.9 3.2 12.5l-13.2 68c-1.4 7.1-7.6 12.2-14.8 12.2h-47.7c-7.2 0-13.4-5.1-14.8-12.2l-13.2-68c-0.8-4.6 0.2-8.9 3.2-12.5c3-3.6 7-5.5 11.6-5.5zm185.9 0h74.1c4.6 0 8.6 1.9 11.6 5.5c3 3.6 4.1 7.9 3.2 12.5l-13.2 68c-1.4 7.1-7.5 12.2-14.8 12.2h-47.7c-7.2 0-13.4-5.1-14.7-12.2l-13.3-68c-0.8-4.6 0.3-8.9 3.2-12.5c3-3.6 7-5.5 11.6-5.5zm28.5 372.4h138.9v27.5c0 8.3-6.8 15.1-15.1 15.1h-108.7c-8.3 0-15.1-6.8-15.1-15.1c0 0 0-27.5 0-27.5zm-308.4 0h138.8v27.5c0 8.3-6.7 15.1-15 15.1h-108.7c-8.3 0-15.1-6.8-15.1-15.1z"/></svg>