<svg version="1.2" xmlns="http://www.w3.org/2000/svg" viewBox="0 0 512 512" width="512" height="512"><style></style><path  d="m351 263l-37.1 37.1c-8.3 8.3-20.2 8.3-28.6 0c-8.4-8.4-8.4-20.3 0-28.7l74-74c3.3-3.3 8.4-3.3 16.8-3.3c3.2 0 11.9 0 16.7 3.3l74.1 74c8.3 8.4 8.3 20.3 0 28.7c-8.4 8.3-20.3 8.3-28.7 0l-37-37.1v116.3c0 11.9-8.4 20.3-20.3 20.3c-11.9 0-20.3-8.4-20.3-20.3v-116.3z"/><path  d="m442.1 123.3v-65.7c0-6.7-3.5-11.9-11.9-11.9h-348.4c-6.7 0-11.9 3.6-11.9 11.9v397.3c0 6.8 3.5 11.9 11.9 11.9h349.7c6.7 0 11.9-3.5 11.9-11.9v-64c0-11.9 8.4-20.3 20.3-20.3c11.9 0 20.3 8.4 20.3 20.3v64c0 28.7-25.2 53.8-53.8 53.8h-348.4c-28.6 0-53.8-25.1-53.8-53.8v-397.3c0-28.6 25.2-53.7 53.8-53.7h346.8c28.6 0 53.7 25.1 53.7 53.7v67.3c0 11.9-8.3 20.3-20.2 20.3c-11.6 0-20-8.4-20-21.9z"/><path  d="m337.5 143.6h-215.4c-11.9 0-20.3-8.4-20.3-20.3c0-11.9 8.4-20.3 20.3-20.3h215.4c11.9 0 20.2 8.4 20.2 20.3c0 11.6-8.3 20.3-20.2 20.3zm-112.7 95.9c0 11.9-8.4 20.3-20.3 20.3h-82.4c-11.9 0-20.3-8.4-20.3-20.3c0-11.9 8.4-20.2 20.3-20.2h82.7c13.2 0 20 8.3 20 20.2zm0 115.9c0 12-8.4 20.3-20.3 20.3h-82.4c-11.9 0-20.3-8.3-20.3-20.3c0-11.9 8.4-20.2 20.3-20.2h82.7c11.6 0 20 8.7 20 20.2z"/></svg>