<svg version="1.2" xmlns="http://www.w3.org/2000/svg" viewBox="0 0 100 100" width="100" height="100"><style></style><path fill-rule="evenodd" d="m11.1 60c-0.9-0.6-1.5-1.3-1.9-2.2-0.3-0.9-0.4-1.9-0.2-2.9 0.2-0.9 0.6-1.8 1.3-2.5l8.5-8.6q0 0-0.1-0.1 0-0.1 0-0.1 0-0.1 0-0.2 0-0.1 0-0.1v-21.8q0-0.3 0.1-0.5 0.1-0.3 0.3-0.5 0.2-0.2 0.5-0.3 0.3-0.2 0.6-0.2h11.3q0.3 0 0.6 0.2 0.3 0.1 0.5 0.3 0.2 0.2 0.3 0.5 0.1 0.2 0.1 0.5v7.9l15.7-15.8q0.2-0.2 0.5-0.3 0.3-0.1 0.6-0.1 0.3 0 0.5 0.1 0.3 0.1 0.5 0.3l38.4 38.8c0.7 0.7 1.1 1.6 1.3 2.5 0.2 1 0.1 2-0.3 2.9-0.3 0.9-0.9 1.6-1.8 2.2-0.8 0.5-1.7 0.8-2.7 0.8q-0.1 0-0.3 0-0.1-0.1-0.2-0.1-0.2-0.1-0.3-0.2-0.1 0-0.2-0.1l-2.7-2.8v28.1q0 0.3-0.2 0.6-0.1 0.3-0.3 0.5-0.2 0.2-0.5 0.3-0.2 0.1-0.5 0.1h-60.3q-0.3 0-0.6-0.1-0.3-0.1-0.5-0.3-0.2-0.2-0.3-0.5-0.1-0.3-0.1-0.6v-29.2l-3.9 3.8q-0.1 0.2-0.2 0.2-0.1 0.1-0.3 0.2-0.1 0-0.2 0.1-0.2 0-0.3 0c-1 0-1.9-0.3-2.7-0.8zm67.9-5.4l-29.3-29.1-28 28v30.7h7.4v-23.3q0-1.2 0.4-2.4 0.5-1.1 1.4-2 0.8-0.8 2-1.3 1.1-0.4 2.3-0.4h9.9q1.2 0 2.4 0.4 1.1 0.5 2 1.3 0.8 0.9 1.3 2 0.4 1.2 0.4 2.4v23.3h27.8zm-30.8 6.2q0-0.6-0.2-1.2-0.3-0.5-0.7-1-0.4-0.4-1-0.6-0.6-0.3-1.2-0.3h-9.9q-0.7 0-1.2 0.3-0.6 0.2-1 0.6-0.5 0.5-0.7 1-0.3 0.6-0.3 1.2v23.4h16.2zm-36.1-5.9q-0.2 0.3-0.2 0.5-0.1 0.3-0.1 0.6 0.1 0.3 0.2 0.5 0 0.2 0.2 0.4 0.1 0.2 0.3 0.3 0.1 0.2 0.3 0.3 0.2 0.1 0.4 0.1l35.4-35.4q0.2-0.1 0.3-0.1 0.1-0.1 0.2-0.2 0.2 0 0.3-0.1 0.2 0 0.3 0 0.2 0 0.3 0 0.1 0.1 0.3 0.1 0.1 0.1 0.2 0.2 0.2 0 0.3 0.1l35.4 35.4q0.2 0 0.4-0.1 0.2-0.1 0.4-0.3 0.1-0.1 0.2-0.3 0.2-0.2 0.2-0.4 0.2-0.2 0.2-0.5 0-0.3 0-0.6-0.1-0.2-0.2-0.5-0.2-0.2-0.4-0.4l-37.3-37.8-37.3 37.8q-0.2 0.2-0.3 0.4zm9.5-14.1l8.4-8.5q0 0 0 0 0 0 0-0.1 0 0 0 0 0-0.1 0-0.1v-9.2h-8.4z"/><path fill-rule="evenodd" d="m58.1 69q-0.2-0.1-0.5-0.3-0.2-0.2-0.3-0.5-0.1-0.3-0.1-0.6v-12.4q0-0.3 0.1-0.6 0.1-0.2 0.3-0.4 0.3-0.3 0.5-0.4 0.3-0.1 0.6-0.1h12.4q0.3 0 0.6 0.1 0.2 0.1 0.5 0.4 0.2 0.2 0.3 0.4 0.1 0.3 0.1 0.6v12.4q0 0.3-0.1 0.6-0.1 0.3-0.3 0.5-0.3 0.2-0.5 0.3-0.3 0.1-0.6 0.1h-12.4q-0.3 0-0.6-0.1zm2.1-2.9h9.4v-9.4h-9.4z"/><path  d="m44.8 69.6q0.4 0.2 0.7 0.5 0.3 0.3 0.4 0.7 0.2 0.4 0.2 0.8c0 0.8-0.5 1.6-1.3 1.9-0.8 0.3-1.7 0.2-2.3-0.4-0.6-0.6-0.8-1.5-0.4-2.3 0.3-0.8 1.1-1.3 1.9-1.3q0.4 0 0.8 0.1z"/></svg>