<?xml version="1.0" encoding="UTF-8"?>
<svg width="700pt" height="700pt" version="1.1" viewBox="0 0 700 700" xmlns="http://www.w3.org/2000/svg">
 <g>
  <path d="m491.93 261.82c17.078 0 30.977-13.914 30.977-30.992l-0.003906-127.73c0-17.098-13.879-30.977-30.977-30.977h-283.85c-17.078 0-30.977 13.879-30.977 30.977v127.73c0 17.098 13.895 30.992 30.977 30.992zm0-13.332h-21.805c-0.22656-1.6797-0.66406-3.4141-0.66406-5.0938 0-22.488 17.867-40.773 40.129-41.773v29.191c0.015624 9.7461-7.9141 17.676-17.66 17.676zm17.676-145.39v29.227c-22.277-0.99609-40.129-19.285-40.129-41.773 0-1.6797 0.4375-3.4141 0.66406-5.1289h21.805c9.7305 0 17.66 7.9258 17.66 17.676zm-105.93 63.875c0 44.941-24.062 81.516-53.672 81.516-29.594 0-53.656-36.574-53.656-81.516 0-44.977 24.062-81.551 53.656-81.551s53.672 36.574 53.672 81.551zm-195.6-81.551h21.805c0.22656 1.7148 0.66406 3.4492 0.66406 5.1289 0 22.488-17.867 40.809-40.145 41.773v-29.227c0-9.75 7.9297-17.676 17.676-17.676zm-17.676 145.39v-29.191c22.277 0.96094 40.145 19.25 40.145 41.773 0 1.6797-0.4375 3.4141-0.66406 5.0938h-21.805c-9.7461 0-17.676-7.9297-17.676-17.676zm53.113 17.676c0.15625-1.7148 0.33203-3.3789 0.33203-5.0938 0-29.836-23.816-54.109-53.445-55.055v-42.734c29.609-0.99609 53.445-25.219 53.445-55.055 0-1.6797-0.15625-3.4141-0.33203-5.1289h72.469c-19.688 16.539-32.953 46.863-32.953 81.551 0 34.684 13.266 65.012 32.934 81.516zm173.46-81.516c0-34.684-13.266-65.012-32.934-81.551h72.469c-0.15625 1.7148-0.33203 3.4141-0.33203 5.1289 0 29.836 23.816 54.074 53.426 55.055v42.719c-29.609 0.96094-53.426 25.219-53.426 55.055 0 1.7148 0.15625 3.4141 0.33203 5.0938h-72.469c19.668-16.488 32.934-46.816 32.934-81.5z"/>
  <path d="m344.57 211.1v14.156c0 3.6562 2.9766 6.6328 6.6484 6.6328 3.6758 0 6.6484-2.9766 6.6484-6.6328l0.003906-14.031c1.5742-0.31641 3.168-0.68359 4.7773-1.1914 9.9219-3.3086 14.473-13.738 14.543-20.125 0.10547-13.23-8.9609-19.145-19.477-25.934-15.488-10.078-17.816-15.207-17.816-17.359 0-0.4375 0.12109-11.289 11.305-11.289 9.0117 0 13.668 5.9492 13.949 6.2812 2.1367 2.9414 6.2461 3.6211 9.2227 1.5391 2.9922-2.1523 3.6914-6.2812 1.5742-9.293-0.29688-0.40234-6.3711-8.6094-18.094-11.113v-14.051c0-3.6562-2.9766-6.6328-6.6484-6.6328-3.6758 0-6.6484 2.9766-6.6484 6.6328v14.191c-11.777 2.9062-17.938 13.336-17.938 23.711 0 11.445 12.059 20.844 23.852 28.508 11.461 7.4219 13.457 9.6406 13.422 14.699 0 1.3984-1.6641 6.3516-5.4414 7.5938-6.1094 2.082-13.809 2.7305-24.344-7.7188-2.6094-2.5547-6.8242-2.5391-9.4141 0.070313-2.5742 2.5898-2.5742 6.8086 0.035156 9.3984 6.4688 6.375 13.051 10.348 19.84 11.957z"/>
  <path d="m600.41 239.4c-7.9102-1.2617-17.676 4.6211-25.496 16.676-1.6094-3.1133-3.9727-5.5664-7.3516-6.8438-3.6406-1.3633-7.5234-1.1016-11.184 0.78906-12.129 6.2109-21.016 30.836-26.25 50.031l-3.0117 9.2227h-0.085937c-7.9961 0-19.094 4.2344-33.703 18.602-9.7656 9.5742-22.102 11.445-35.191 13.406-11.934 1.7852-24.289 3.6562-35.402 11.375-22.398 15.559-38.184 57.277-48.246 127.63-0.28125 1.8711 0.29688 3.832 1.5586 5.3008 1.2773 1.4336 3.0977 2.293 5.0234 2.293h60.727c1.7656 0 3.4492-0.71875 4.707-1.9414l25.566-25.566c1.8008-1.7148 12.109-7.5938 22.102-13.266 16.52-9.3984 39.148-22.277 60.34-36.574 29.434-19.863 54.547-139.89 56.316-152.2 1.7461-12.371-4.5-17.953-10.418-18.934zm-2.7656 17.047c-3.6914 25.812-29.348 128.71-50.574 143.05-20.789 14.016-43.137 26.758-59.484 36.066-15.312 8.6797-22.207 12.652-24.922 15.383l-23.641 23.625h-50.262c11.691-75.773 28.926-102.23 41.527-110.98 8.5742-5.9492 18.883-7.4883 29.801-9.1172 13.93-2.082 29.699-4.4805 42.543-17.098 13.633-13.371 22.996-16.066 27.246-14.191 2.4688 1.1016 3.2188 4.0078 3.0977 6.125-0.52344 6.0547-20.16 30.273-38.184 49.121-2.5391 2.625-2.4492 6.8789 0.21094 9.3984 2.6602 2.5391 6.8594 2.4336 9.3984-0.21094 12.371-12.914 41.176-44.398 41.859-57.594 0.35156-6.4922-2.1719-12.406-6.6328-16.238l3.2383-9.8711c8.4531-30.992 17.289-41.965 19.898-42.246 2.1016 1.7148 2.7461 13.055 0.48828 24.746-0.035156 0.070312-8.0312 30.992-8.0312 30.992-0.92578 3.5508 1.1914 7.1758 4.7422 8.1367 0.55859 0.14062 1.1211 0.21094 1.6797 0.21094 2.957 0 5.6523-2.0117 6.4414-4.9883 0 0 8.5938-33.672 8.7656-34.492 5.6016-24.605 17.973-34.109 20.648-34.176 0.007812-0.019532 0.61719 1.1172 0.14453 4.3555z"/>
  <path d="m277.27 352.66c-11.094-7.7188-23.449-9.6094-35.402-11.375-13.09-1.9414-25.426-3.832-35.191-13.406-14.613-14.352-25.707-18.602-33.688-18.602h-0.085937l-3.0273-9.2227c-5.2344-19.215-14.121-43.82-26.25-50.031-3.6562-1.8711-7.5234-2.1523-11.184-0.78906-3.3789 1.2617-5.7383 3.7266-7.3516 6.8438-7.8242-12.059-17.57-17.938-25.496-16.676-5.9141 0.99609-12.18 6.5625-10.414 18.934 1.75 12.301 26.879 132.35 56.297 152.2 21.211 14.281 43.836 27.176 60.375 36.574 9.9766 5.6719 20.281 11.551 22.086 13.266l25.566 25.566c1.2422 1.2266 2.9219 1.9414 4.707 1.9414h60.727c1.9258 0 3.7617-0.85937 5.0234-2.293 1.2617-1.4688 1.8203-3.4141 1.5586-5.3008-10.082-70.336-25.848-112.07-48.25-127.63zm-16.309 121.89-23.641-23.625c-2.7109-2.7305-9.6094-6.7031-24.902-15.383-16.344-9.293-38.711-22.051-59.5-36.066-21.211-14.316-46.883-117.23-50.574-143.05-0.45312-3.2539 0.14062-4.375 0.14062-4.375 2.6758 0.070313 15.031 9.5742 20.633 34.176 0.19141 0.82422 8.7852 34.492 8.7852 34.492 0.76953 2.9766 3.4648 4.9883 6.4219 4.9883 0.54297 0 1.1211-0.070312 1.6797-0.21094 3.5703-0.96094 5.6875-4.5859 4.7617-8.1367 0 0-8.0156-30.941-8.0312-30.992-2.2578-11.691-1.5938-23.031 0.48828-24.746 2.5898 0.28125 11.445 11.254 19.914 42.246l3.2188 9.8711c-4.4609 3.832-6.9844 9.7461-6.6328 16.238 0.69922 13.195 29.504 44.676 41.844 57.594 2.5547 2.625 6.7539 2.7305 9.4141 0.21094 2.6602-2.5195 2.7461-6.7734 0.21094-9.3984-18.008-18.828-37.641-43.066-38.168-49.121-0.12109-2.1172 0.62891-5.0234 3.0977-6.125 4.2344-1.8711 13.613 0.82422 27.246 14.191 12.844 12.617 28.629 14.996 42.543 17.098 10.922 1.6445 21.227 3.1836 29.801 9.1172 12.602 8.75 29.836 35.211 41.527 110.98l-50.277 0.003906z"/>
 </g>
</svg>
