<svg version="1.2" xmlns="http://www.w3.org/2000/svg" viewBox="0 0 512 512" width="512" height="512"><style></style><path fill-rule="evenodd" d="m487.9 49.1c4.5 4.6 7.1 10.7 7.1 17.1v387.2c0 2.1-0.9 4.2-2.4 5.7c-1.5 1.5-3.5 2.4-5.7 2.4h-467.8c-2.2 0-4.2-0.9-5.7-2.4c-1.5-1.5-2.4-3.6-2.4-5.7v-387.2c0-6.4 2.6-12.5 7.1-17.1c4.5-4.5 10.7-7.1 17.1-7.1h435.6c6.4 0 12.6 2.6 17.1 7.1zm-460.8 57.5h451.8v-40.4c0-2.1-0.9-4.2-2.4-5.7c-1.5-1.5-3.6-2.3-5.7-2.3h-435.6c-4.4 0-8.1 3.6-8.1 8zm0 338.8h451.8v-322.6h-451.8z"/><path fill-rule="evenodd" d="m66.5 65.3c4.5-4.6 10.7-7.1 17.1-7.1c6.4 0 12.6 2.5 17.1 7.1c4.6 4.5 7.1 10.6 7.1 17.1c0 6.4-2.5 12.5-7.1 17.1c-4.5 4.5-10.7 7.1-17.1 7.1c-6.4 0-12.6-2.6-17.1-7.1c-4.5-4.6-7.1-10.7-7.1-17.1c0-6.5 2.6-12.6 7.1-17.1zm9 17.1c0 3.2 2 6.2 5 7.4c3 1.3 6.5 0.6 8.8-1.7c2.3-2.3 3-5.8 1.8-8.8c-1.3-3-4.2-5-7.5-5c-4.4 0-8.1 3.6-8.1 8.1z"/><path fill-rule="evenodd" d="m405.3 65.3c4.5-4.6 10.7-7.1 17.1-7.1c6.4 0 12.6 2.5 17.1 7.1c4.5 4.5 7.1 10.6 7.1 17.1c0 6.4-2.6 12.5-7.1 17.1c-4.5 4.5-10.7 7.1-17.1 7.1c-6.4 0-12.6-2.6-17.1-7.1c-4.6-4.6-7.1-10.7-7.1-17.1c0-6.5 2.5-12.6 7.1-17.1zm9 17.1c0 3.2 2 6.2 5 7.4c3 1.3 6.5 0.6 8.8-1.7c2.3-2.3 3-5.8 1.7-8.8c-1.2-3-4.1-5-7.4-5c-4.5 0-8.1 3.6-8.1 8.1z"/><path fill-rule="evenodd" d="m223.1 281.7c-1.5-1.6-2.4-3.6-2.4-5.8v-48.3c0-4.5 3.6-8.1 8.1-8.1h48.4c2.1 0 4.2 0.8 5.7 2.3c1.5 1.6 2.4 3.6 2.4 5.8v48.3c0 2.2-0.9 4.2-2.4 5.8c-1.5 1.5-3.6 2.3-5.7 2.3h-48.4c-2.1 0-4.2-0.8-5.7-2.3zm13.8-13.8h32.2v-32.3h-32.2z"/><path fill-rule="evenodd" d="m303.8 281.7c-1.6-1.6-2.4-3.6-2.4-5.8v-48.3c0-4.5 3.6-8.1 8.1-8.1h48.4c2.1 0 4.2 0.8 5.7 2.3c1.5 1.6 2.3 3.6 2.3 5.8v48.3c0 2.2-0.8 4.2-2.3 5.8c-1.5 1.5-3.6 2.3-5.7 2.3h-48.4c-2.2 0-4.2-0.8-5.7-2.3zm13.7-13.8h32.3v-32.3h-32.3z"/><path fill-rule="evenodd" d="m142.4 281.7c-1.5-1.6-2.3-3.6-2.3-5.8v-48.3c0-4.5 3.6-8.1 8-8.1h48.4q1.4 0 2.6 0.5l8.5-6.8l10.1 12.6l-13.1 10.5v39.6c0 2.2-0.8 4.2-2.4 5.8c-1.5 1.5-3.5 2.3-5.7 2.3h-48.4c-2.1 0-4.2-0.8-5.7-2.3zm13.8-13.8h32.3v-18.7l-11.1 8.8c-3.2 2.6-7.8 2.4-10.8-0.5l-8-8.1l11.4-11.4l2.9 2.9l6.7-5.3h-23.4z"/><path fill-rule="evenodd" d="m61.8 281.7c-1.5-1.6-2.4-3.6-2.4-5.8v-48.3c0-4.5 3.6-8.1 8.1-8.1h48.4c2.1 0 4.2 0.8 5.7 2.3c1.5 1.6 2.3 3.6 2.3 5.8v48.3c0 2.2-0.8 4.2-2.3 5.8c-1.5 1.5-3.6 2.3-5.7 2.3h-48.4c-2.2 0-4.2-0.8-5.7-2.3zm13.7-13.8h32.3v-32.3h-32.3z"/><path fill-rule="evenodd" d="m384.4 281.7c-1.5-1.6-2.3-3.6-2.3-5.8v-48.3c0-4.5 3.6-8.1 8-8.1h48.4c2.2 0 4.2 0.8 5.7 2.3c1.5 1.6 2.4 3.6 2.4 5.8v48.3c0 2.2-0.9 4.2-2.4 5.8c-1.5 1.5-3.5 2.3-5.7 2.3h-48.4c-2.1 0-4.2-0.8-5.7-2.3zm13.8-13.8h32.3v-32.3h-32.3z"/><path fill-rule="evenodd" d="m223.1 201c-1.5-1.5-2.4-3.6-2.4-5.7v-48.4c0-4.5 3.6-8.1 8.1-8.1h48.4c2.1 0 4.2 0.9 5.7 2.4c1.5 1.5 2.4 3.6 2.4 5.7v48.4c0 2.1-0.9 4.2-2.4 5.7c-1.5 1.5-3.6 2.4-5.7 2.4h-48.4c-2.1 0-4.2-0.9-5.7-2.4zm13.8-13.8h32.2v-32.2h-32.2z"/><path fill-rule="evenodd" d="m303.8 201c-1.6-1.5-2.4-3.6-2.4-5.7v-48.4c0-4.5 3.6-8.1 8.1-8.1h48.4c2.1 0 4.2 0.9 5.7 2.4c1.5 1.5 2.3 3.6 2.3 5.7v48.4c0 2.1-0.8 4.2-2.3 5.7c-1.5 1.5-3.6 2.4-5.7 2.4h-48.4c-2.2 0-4.2-0.9-5.7-2.4zm13.7-13.8h32.3v-32.2h-32.3z"/><path fill-rule="evenodd" d="m142.4 201c-1.5-1.5-2.3-3.6-2.3-5.7v-48.4c0-4.5 3.6-8.1 8-8.1h48.4c2.2 0 4.2 0.9 5.7 2.4c1.6 1.5 2.4 3.6 2.4 5.7v48.4c0 2.1-0.8 4.2-2.4 5.7c-1.5 1.5-3.5 2.4-5.7 2.4h-48.4c-2.1 0-4.2-0.9-5.7-2.4zm13.8-13.8h32.3v-32.2h-32.3z"/><path fill-rule="evenodd" d="m61.8 201c-1.5-1.5-2.4-3.6-2.4-5.7v-48.4c0-4.5 3.6-8.1 8.1-8.1h48.4q1.3 0.1 2.6 0.5l8.5-6.8l10 12.6l-13.1 10.5v39.7c0 2.1-0.8 4.2-2.3 5.7c-1.5 1.5-3.6 2.4-5.7 2.4h-48.4c-2.2 0-4.2-0.9-5.7-2.4zm13.7-13.8h32.3v-18.7l-11.1 8.9c-3.2 2.6-7.8 2.3-10.7-0.6l-8.1-8.1l11.4-11.4l3 3l6.6-5.3h-23.4z"/><path fill-rule="evenodd" d="m384.4 201c-1.5-1.5-2.3-3.6-2.3-5.7v-48.4c0-4.5 3.6-8.1 8-8.1h48.4q1.3 0.1 2.6 0.5l8.5-6.8l10.1 12.6l-13.1 10.5v39.7c0 2.1-0.9 4.2-2.4 5.7c-1.5 1.5-3.5 2.4-5.7 2.4h-48.4c-2.1 0-4.2-0.9-5.7-2.4zm13.8-13.8h32.3v-18.7l-11.1 8.9c-3.2 2.6-7.9 2.3-10.8-0.6l-8-8.1l11.4-11.4l2.9 3l6.7-5.3h-23.4z"/><path fill-rule="evenodd" d="m223.1 362.3c-1.5-1.5-2.4-3.6-2.4-5.7v-48.4c0-4.4 3.6-8.1 8.1-8.1h48.4c2.1 0 4.2 0.9 5.7 2.4c1.5 1.5 2.4 3.6 2.4 5.7v48.4c0 2.1-0.9 4.2-2.4 5.7c-1.5 1.5-3.6 2.4-5.7 2.4h-48.4c-2.1 0-4.2-0.9-5.7-2.4zm13.8-13.8h32.2v-32.2h-32.2z"/><path fill-rule="evenodd" d="m303.8 362.3c-1.6-1.5-2.4-3.6-2.4-5.7v-48.4c0-4.4 3.6-8.1 8.1-8.1h48.4q1.3 0.1 2.5 0.6l8.6-6.9l10 12.6l-13.1 10.5v39.7c0 2.1-0.8 4.2-2.3 5.7c-1.5 1.5-3.6 2.4-5.7 2.4h-48.4c-2.2 0-4.2-0.9-5.7-2.4zm13.7-13.8h32.3v-18.7l-11.1 8.9c-3.2 2.6-7.8 2.3-10.7-0.6l-8.1-8.1l11.4-11.4l3 3l6.6-5.3h-23.4z"/><path fill-rule="evenodd" d="m142.4 362.3c-1.5-1.5-2.3-3.6-2.3-5.7v-48.4c0-4.4 3.6-8.1 8-8.1h48.4c2.2 0 4.2 0.9 5.7 2.4c1.6 1.5 2.4 3.6 2.4 5.7v48.4c0 2.1-0.8 4.2-2.4 5.7c-1.5 1.5-3.5 2.4-5.7 2.4h-48.4c-2.1 0-4.2-0.9-5.7-2.4zm13.8-13.8h32.3v-32.2h-32.3z"/><path fill-rule="evenodd" d="m61.8 362.3c-1.5-1.5-2.4-3.6-2.4-5.7v-48.4c0-4.4 3.6-8.1 8.1-8.1h48.4c2.1 0 4.2 0.9 5.7 2.4c1.5 1.5 2.3 3.6 2.3 5.7v48.4c0 2.1-0.8 4.2-2.3 5.7c-1.5 1.5-3.6 2.4-5.7 2.4h-48.4c-2.2 0-4.2-0.9-5.7-2.4zm13.7-13.8h32.3v-32.2h-32.3z"/><path fill-rule="evenodd" d="m384.4 362.3c-1.5-1.5-2.3-3.6-2.3-5.7v-48.4c0-4.4 3.6-8.1 8-8.1h48.4c2.2 0 4.2 0.9 5.7 2.4c1.5 1.5 2.4 3.6 2.4 5.7v48.4c0 2.1-0.9 4.2-2.4 5.7c-1.5 1.5-3.5 2.4-5.7 2.4h-48.4c-2.1 0-4.2-0.9-5.7-2.4zm13.8-13.8h32.3v-32.2h-32.3z"/><path  d="m59.4 388.9h96.8v16.1h-96.8z"/><path  d="m172.3 388.9h64.6v16.1h-64.6z"/><path  d="m253 388.9h145.2v16.1h-145.2z"/><path  d="m414.3 388.9h32.3v16.1h-32.3z"/><path  d="m59.4 413.1h129.1v16.1h-129.1z"/><path  d="m204.6 413.1h80.7v16.1h-80.7z"/><path  d="m301.4 413.1h145.2v16.1h-145.2z"/></svg>