<svg version="1.2" xmlns="http://www.w3.org/2000/svg" viewBox="0 0 512 512" width="512" height="512"><style></style><path fill-rule="evenodd" d="m485.1 95v371.7c0 22.5-18.3 40.8-40.9 40.8h-378.4c-22.6 0-40.9-18.3-40.9-40.8v-371.7c0-22.5 18.3-40.8 40.9-40.8h12.1v-21.8c0-16.5 13.4-29.9 29.9-29.9h10.9c16.5 0 29.9 13.4 29.9 29.9v21.8h212.8v-21.8c0-16.5 13.4-29.9 29.9-29.9h10.9c16.5 0 29.9 13.4 29.9 29.9v21.8h12.1c22.6 0 40.9 18.3 40.9 40.8zm-107.4-2.7c0 7.5 6.1 13.6 13.6 13.6h10.9c7.5 0 13.6-6.1 13.6-13.6v-59.9c0-7.5-6.1-13.6-13.6-13.6h-10.9c-7.5 0-13.6 6.1-13.6 13.6zm-283.5 0c0 7.5 6.1 13.6 13.6 13.6h10.9c7.5 0 13.6-6.1 13.6-13.6v-59.9c0-7.5-6.1-13.6-13.6-13.6h-10.9c-7.5 0-13.6 6.1-13.6 13.6zm374.5 92.1h-427.4v282.3c0 13.5 10.9 24.5 24.5 24.5h378.4c13.5 0 24.5-11 24.5-24.5zm0-89.4c0-13.5-11-24.5-24.5-24.5h-12.1v21.8c0 16.5-13.4 29.9-29.9 29.9h-10.9c-14.5 0-26.5-10.3-29.3-23.9q-0.7-2.9-0.7-6v-21.8h-212.7v21.8q0 3.1-0.6 6c-2.8 13.6-14.9 23.9-29.3 23.9h-10.9c-16.5 0-30-13.4-30-29.9v-21.8h-12c-13.6 0-24.6 11-24.6 24.5v73.1h427.5z"/><path fill-rule="evenodd" d="m174.7 322.4h-91.4v-114.4h91.4zm-16.4-98h-58.7v81.7h58.7z"/><path fill-rule="evenodd" d="m208.5 208h91.4v114.4h-91.4zm16.4 98h58.7v-81.7h-58.7z"/><path fill-rule="evenodd" d="m333.8 208h91.4v114.4h-91.4zm16.3 98h58.7v-81.7h-58.7z"/><path fill-rule="evenodd" d="m174.7 471.2h-91.4v-114.3h91.4zm-16.4-98.1h-58.7v81.7h58.7z"/><path fill-rule="evenodd" d="m208.5 356.9h91.4v114.3h-91.4zm16.4 98.1h58.7v-81.7h-58.7z"/><path fill-rule="evenodd" d="m333.8 356.9h91.4v114.3h-91.4zm16.3 98.1h58.7v-81.7h-58.7z"/></svg>