<?xml version="1.0" encoding="utf-8"?>
<!-- Generator: Adobe Illustrator 16.0.0, SVG Export Plug-In . SVG Version: 6.00 Build 0)  -->
<!DOCTYPE svg PUBLIC "-//W3C//DTD SVG 1.1//EN" "http://www.w3.org/Graphics/SVG/1.1/DTD/svg11.dtd">
<svg version="1.1" id="Layer_1" xmlns="http://www.w3.org/2000/svg" xmlns:xlink="http://www.w3.org/1999/xlink" x="0px" y="0px"
	 width="700px" height="700px" viewBox="0 0 700 700" enable-background="new 0 0 700 700" xml:space="preserve">
<path d="M350,201.85c-43.094,0-78.148,35.055-78.148,78.152s35.055,78.152,78.148,78.152s78.148-35.059,78.148-78.152
	C428.148,236.909,393.093,201.85,350,201.85z M350,330.15c-27.652,0-50.148-22.5-50.148-50.152s22.5-50.152,50.148-50.152
	s50.148,22.5,50.148,50.152S377.652,330.15,350,330.15z M569.33,271.877c-54.258-76.238-134.2-119.97-219.33-119.97
	s-165.07,43.73-219.33,119.97l-5.773,8.121l5.773,8.113c54.25,76.246,134.2,119.98,219.33,119.98s165.08-43.73,219.33-119.97
	l5.773-8.117L569.33,271.877z M350,380.087c-72.918,0-141.84-36.344-190.53-100.09c48.691-63.746,117.62-100.09,190.53-100.09
	s141.84,36.344,190.53,100.09C491.839,343.743,422.92,380.087,350,380.087L350,380.087z"/>
</svg>
