<?xml version="1.0" encoding="utf-8"?>
<!-- Generator: Adobe Illustrator 16.0.0, SVG Export Plug-In . SVG Version: 6.00 Build 0)  -->
<!DOCTYPE svg PUBLIC "-//W3C//DTD SVG 1.1//EN" "http://www.w3.org/Graphics/SVG/1.1/DTD/svg11.dtd">
<svg version="1.1" id="Layer_1" xmlns="http://www.w3.org/2000/svg" xmlns:xlink="http://www.w3.org/1999/xlink" x="0px" y="0px"
	 width="700px" height="700px" viewBox="0 0 700 700" enable-background="new 0 0 700 700" xml:space="preserve">
<path d="M131.6,84c-21.426,0-39.199,17.773-39.199,39.199v313.6c0,21.426,17.773,39.199,39.199,39.199h436.8
	c21.426,0,39.198-17.773,39.198-39.199v-313.6C607.599,101.773,589.826,84,568.4,84H131.6z M131.6,117.602h436.8
	c3.395,0,5.602,2.207,5.602,5.602v222.6l-84.699-67.727c-5.543-4.484-14.039-4.855-19.949-0.875l-79.449,54.602l-107.8-87.324
	c-3.438-2.801-8.016-4.152-12.426-3.676c-2.762,0.336-5.434,1.367-7.699,2.977L126,337.573v-214.38c0-3.395,2.207-5.602,5.602-5.602
	L131.6,117.602z M389.2,162.403c-27.637,0-50.398,22.766-50.398,50.398c0,27.637,22.767,50.398,50.398,50.398
	c27.637,0,50.397-22.766,50.397-50.398C439.598,185.164,416.832,162.403,389.2,162.403z M389.2,196.005
	c9.477,0,16.801,7.324,16.801,16.801c0,9.477-7.324,16.801-16.801,16.801s-16.801-7.324-16.801-16.801
	S379.724,196.005,389.2,196.005z M270.9,278.607l107.8,87.148c5.543,4.484,14.039,4.855,19.949,0.875l79.272-54.602l96.074,76.824
	v47.949c0,3.391-2.207,5.602-5.602,5.602h-436.8c-3.395,0-5.602-2.207-5.602-5.602v-58.273L270.9,278.607z"/>
</svg>
