<svg version="1.2" xmlns="http://www.w3.org/2000/svg" viewBox="0 0 512 512" width="512" height="512"><style></style><path  d="m97.6 137.5h-52.5c-7.7 0-14-6.3-14-14c0-7.7 6.3-13.9 14-13.9h52.5c7.7 0 14 6.2 14 13.9c0 7.7-6.3 14-14 14z"/><path  d="m45.1 402.5c-7.7 0-14-6.3-14-14c0-7.7 6.3-14 14-14h52.5c7.7 0 14 6.3 14 14c0 7.7-6.3 14-14 14z"/><path  d="m230.9 165.9v-12.6c0-27.7 22.5-50.2 50.2-50.2c27.7 0 50.2 22.5 50.2 50.2v12.6c0 27.7-22.5 50.2-50.2 50.2c-27.7 0-50.2-22.5-50.2-50.2z"/><path  d="m97.6 270h-52.5c-7.7 0-14-6.3-14-14c0-7.7 6.3-14 14-14h52.5c7.7 0 14 6.3 14 14c0 7.7-6.3 14-14 14z"/><path  d="m381.9 364.8v64.1h-201.7v-64.1c0-55.6 45.3-100.9 100.9-100.9c55.6 0 100.8 45.3 100.8 100.9z"/><path fill-rule="evenodd" d="m476.8 77.4v357.2c0 39.9-32.4 72.3-72.4 72.3h-268.8c-39.9 0-72.3-32.4-72.3-72.3v-16h34.3c16.6 0 30.1-13.5 30.1-30.1c0-16.7-13.5-30.2-30.1-30.2h-34.3v-72.1h34.3c16.6 0 30.1-13.6 30.1-30.2c0-16.6-13.5-30.2-30.1-30.2h-34.3v-72.1h34.3c16.6 0 30.1-13.5 30.1-30.2c0-16.6-13.5-30.1-30.1-30.1h-34.3v-16c0-39.9 32.4-72.3 72.3-72.3h268.9c39.9 0 72.4 32.4 72.3 72.3zm-262.1 88.5c0 36.6 29.8 66.4 66.4 66.4c36.6 0 66.4-29.8 66.4-66.4v-12.6c0-36.6-29.8-66.4-66.4-66.4c-36.6 0-66.4 29.8-66.4 66.4zm183.4 198.9c0-64.5-52.5-117.1-117-117.1c-64.6 0-117.1 52.5-117.1 117.1v72.2c0 4.5 3.6 8.1 8.1 8.1h217.9c4.5 0 8.1-3.6 8.1-8.1z"/></svg>