<svg version="1.2" xmlns="http://www.w3.org/2000/svg" viewBox="0 0 512 512" width="512" height="512"><style></style><path fill-rule="evenodd" d="m96.2 47.5v97.4l58.4 19.4v97.4l-58.4-19.4v77.9c0 0 3.1 1 7.9 3c3 1.2 3.4 1.6 9.1 3.7c3.5 1.3 6 2.2 10.4 3.6c2.8 1 5.3 2.1 8.5 3.1c6.8 1.9 14.7 3.4 22.5 4.8v-76.7l77.9-19.4v91.3c15-3.9 25.1-7.7 31.7-10.4c4.8-2 7.3-3 7.3-3c0 0 3.1-1.5 7.9-3.7c4.8-2.4 10.3-5.3 19.5-8.5c3.5-1.3 7.5-2.5 11.5-3.7v-81.5l78 19.5v57.2c32.1 6.3 58.4 20.7 58.4 20.7v19.4c0 0-43.8-23.7-87.7-23.7c-43.8 0-87.6 23.7-87.6 23.7c0 0-43.8 21.4-87.7 21.4c-43.8 0-87.6-21.4-87.6-21.4v136.4h-39v-428.5c0-11.7 8.7-19.5 19.5-19.5c10.8 0 19.5 7.8 19.5 19.5zm214.2 175.3l-77.9 19.5v-97.4c0 0 77.9-19.5 77.9-19.5v97.4zm-155.8-58.5q0 0 0 0c0 0 0-76 0-76c-15.8-2.9-27.2-7.3-36.5-11c16.7 6 41.1 12.8 65.7 12.8c24.1 0 48.3-6.3 65.2-12.2c-5.4 2.1-8.7 3.4-16.5 6.1v60.9c0 0-77.9 19.4-77.9 19.4zm155.8-109.5c14.6-4 31.5-7.3 48.7-7.3c9.9 0 19.9 0.7 29.3 2.4v95l-78-19.5c0 0 0-70.6 0-70.6zm136.4 109.5v78h-58.4v-97.4z"/></svg>