<?xml version="1.0" encoding="utf-8"?>
<!-- Generator: Adobe Illustrator 16.0.0, SVG Export Plug-In . SVG Version: 6.00 Build 0)  -->
<!DOCTYPE svg PUBLIC "-//W3C//DTD SVG 1.1//EN" "http://www.w3.org/Graphics/SVG/1.1/DTD/svg11.dtd">
<svg version="1.1" id="Layer_1" xmlns="http://www.w3.org/2000/svg" xmlns:xlink="http://www.w3.org/1999/xlink" x="0px" y="0px"
	 width="700px" height="700px" viewBox="0 0 700 700" enable-background="new 0 0 700 700" xml:space="preserve">
<g>
	<path d="M572.21,81.535H127.8c-7.906,0.016-15.484,3.168-21.07,8.762c-5.586,5.598-8.723,13.18-8.723,21.086v261.46
		c0.016,7.898,3.16,15.465,8.742,21.051c5.582,5.582,13.152,8.727,21.051,8.742h176.18v25.199c0.008,4.746-1.527,9.363-4.367,13.16
		l-18.367,24.414h-0.004c-1.832,2.473-2.125,5.766-0.75,8.52c1.371,2.754,4.172,4.504,7.246,4.531h124.601
		c3.078-0.027,5.879-1.777,7.25-4.531s1.078-6.047-0.754-8.52l-18.427-24.414c-2.863-3.789-4.414-8.41-4.422-13.16v-25.199h176.23
		c7.898-0.016,15.469-3.16,21.051-8.742c5.582-5.586,8.727-13.151,8.742-21.051v-261.46c0-7.906-3.137-15.488-8.723-21.086
		c-5.586-5.594-13.164-8.746-21.07-8.762H572.21z M127.8,97.832h444.41c3.594,0,7.043,1.43,9.582,3.969
		c2.543,2.543,3.973,5.988,3.973,9.582v226.86h-471.52v-226.86c0-3.594,1.43-7.039,3.973-9.582
		C120.756,99.262,124.206,97.832,127.8,97.832L127.8,97.832z M387.47,450.632l8.566,11.199h-92.062l8.566-11.199
		c4.977-6.621,7.668-14.68,7.672-22.961v-25.03h59.586v25.198c0.004,8.281,2.695,16.34,7.672,22.961L387.47,450.632z
		 M572.27,386.234L127.8,386.23c-7.406-0.027-13.43-5.977-13.555-13.383V354.48h471.52v18.367
		c-0.031,7.473-6.082,13.522-13.555,13.551L572.27,386.234z"/>
	<path d="M350,133.17c3.512,0,6.676-2.113,8.02-5.359c1.344-3.242,0.602-6.977-1.883-9.457c-2.48-2.484-6.215-3.227-9.457-1.883
		c-3.246,1.344-5.359,4.508-5.359,8.02c-0.016,2.305,0.895,4.523,2.527,6.152C345.477,132.275,347.691,133.186,350,133.17
		L350,133.17z"/>
	<path d="M311.53,240.8c2.102-0.023,4.113-0.867,5.602-2.352l28.953-28.895l-0.004-0.004c2.828-3.238,2.664-8.117-0.375-11.156
		c-3.043-3.039-7.918-3.207-11.16-0.379L305.765,226.8c-3.016,3.125-3.016,8.074,0,11.199
		C307.226,239.678,309.308,240.69,311.53,240.8L311.53,240.8z"/>
	<path d="M382.76,245.89l-28.953,28.953c-3.172,3.188-3.156,8.34,0.027,11.508c3.188,3.172,8.34,3.156,11.509-0.027l28.895-28.727
		c2.477-3.199,2.227-7.73-0.594-10.629c-2.816-2.902-7.336-3.289-10.604-0.91L382.76,245.89z"/>
	<path d="M312.76,279.33c3.121,3.016,8.074,3.016,11.199,0l63.277-63c2.387-3.203,2.09-7.664-0.699-10.52
		c-2.789-2.859-7.238-3.266-10.5-0.961l-63.277,63c-1.539,1.516-2.402,3.582-2.402,5.742
		C310.357,275.748,311.221,277.814,312.76,279.33L312.76,279.33z"/>
</g>
</svg>
