<svg version="1.2" xmlns="http://www.w3.org/2000/svg" viewBox="0 0 512 512" width="512" height="512"><style></style><path fill-rule="evenodd" d="m256 502.5c-136.3 0-246.5-110.2-246.5-246.5c0-136.3 110.2-246.5 246.5-246.5c136.3 0 246.5 110.2 246.5 246.5c0 136.3-110.2 246.5-246.5 246.5zm-1.1-21.4c52.3 0 99.3-17 137.7-46.9c-2.2-33.1-16-64-39.5-87.5c-25.6-25.6-60.8-40.5-97.1-40.5c-73.6 1-132.3 56.5-137.7 128c38.5 29.9 85.4 46.9 136.6 46.9zm157.9-62.9q0 0 0 0q0 0 0 0zm0 0c42.7-41.6 68.3-99.2 68.3-162.2c0-124.8-101.4-225.1-225.1-225.1c-123.8 0-225.2 100.3-225.2 225.1c0 64 25.6 121.7 68.3 162.2c9.6-59.8 52.3-106.7 107.8-124.8c-27.7-17.1-45.9-47-45.9-81.1c0-52.3 42.7-95 95-95c52.3 0 94.9 42.7 94.9 95c0 34.1-18.1 64-45.8 81.1c23.4 8.5 45.8 21.3 64 39.4c23.5 23.5 38.4 53.4 43.7 85.4zm-83.2-205.9c0-40.6-33.1-73.7-73.6-73.7c-40.6 0-73.6 33.1-73.6 73.7c0 40.5 33 73.6 73.6 73.6c40.5-1.1 73.6-33.1 73.6-73.6z"/></svg>