<?xml version="1.0" encoding="utf-8"?>
<!-- Generator: Adobe Illustrator 16.0.0, SVG Export Plug-In . SVG Version: 6.00 Build 0)  -->
<!DOCTYPE svg PUBLIC "-//W3C//DTD SVG 1.1//EN" "http://www.w3.org/Graphics/SVG/1.1/DTD/svg11.dtd">
<svg version="1.1" id="Layer_1" xmlns="http://www.w3.org/2000/svg" xmlns:xlink="http://www.w3.org/1999/xlink" x="0px" y="0px"
	 width="700px" height="700px" viewBox="0 0 700 700" enable-background="new 0 0 700 700" xml:space="preserve">
<path d="M433.24,50.449c21.862,20.18,35.315,50.449,35.315,82.402v60.539c0,31.953-13.453,62.223-35.315,82.402
	c-45.406,47.086-119.4,47.086-166.49,0c-20.18-20.18-33.633-50.449-33.633-82.402v-60.539c0-31.953,13.453-62.223,33.633-82.402
	C313.836,3.363,387.83,3.363,433.24,50.449z M244.89,284.199c16.816-8.41,28.59,15.137,13.453,23.543
	c0,0-70.629,38.68-95.855,47.086c-25.227,10.09-35.316,33.633-36.996,58.859c-1.684,26.905-1.684,42.043-1.684,50.448
	c73.992,67.267,378.38,67.267,452.37,0c0-8.41,0-23.543-1.684-50.448c-1.684-25.228-11.773-48.771-36.996-58.859
	c-23.543-8.41-94.176-47.086-94.176-47.086c-16.816-8.41-3.364-31.953,11.772-23.543c0,0,68.949,35.316,92.492,45.406
	c35.315,13.453,50.449,45.407,53.812,82.402c1.684,40.359,1.684,57.176,1.684,57.176c0,3.363-1.684,8.41-3.363,10.091
	c-77.354,87.448-422.1,87.448-499.459,0c-1.684-1.684-3.363-6.727-3.363-10.091c0,0,0-16.815,3.363-57.176
	c1.684-36.995,18.5-68.949,53.812-82.402c21.863-10.09,90.812-45.406,90.812-45.406H244.89z M286.933,70.629
	c-15.137,16.816-25.227,38.68-25.227,62.223v60.539c0,23.543,10.09,47.086,25.227,62.223c35.316,35.316,90.812,35.316,126.12,0
	c15.138-15.137,25.228-38.68,25.228-62.223v-60.539c0-23.543-10.09-45.406-25.228-62.223
	C377.737,35.313,322.241,35.313,286.933,70.629L286.933,70.629z"/>
</svg>
