<svg version="1.2" xmlns="http://www.w3.org/2000/svg" viewBox="0 0 512 512" width="512" height="512"><style></style><path fill-rule="evenodd" d="m444.8 58.2v355.5c0 29.9-24.3 54.2-54.3 54.2h-119.1v28.3c0 4.3-2.3 8.2-6.1 10.3c-1.8 1-3.7 1.5-5.7 1.5c-2.2 0-4.3-0.6-6.2-1.7l-42.9-26.2l-42.3 25.7c-3.7 2.2-8.2 2.3-11.9 0.2c-3.8-2.1-6.1-6-6.1-10.3v-27.8h-28.7c-29.9 0-54.3-24.3-54.3-54.2v-355.5c0-29.9 24.4-54.2 54.3-54.2h269c30 0 54.3 24.3 54.3 54.2zm-354 278.2c8-5.1 17.5-8.2 27.7-8.2h17.1c-0.6-1.4-1-3-1-4.7v-295.9h-13.1c-16.9 0-30.7 13.8-30.7 30.6zm157 73.8h-73.9v64.5l30.5-18.5c3.7-2.3 8.5-2.3 12.2 0l31.2 19zm173.4-66.5c-8 5.2-17.5 8.2-27.7 8.2h-275c-15.3 0-27.7 12.4-27.7 27.6v34.2c0 16.9 13.8 30.6 30.7 30.6h28.7v-34.1h-9.1c-6.5 0-11.8-5.3-11.8-11.8c0-6.5 5.3-11.8 11.8-11.8h252.4c15.3 0 27.7-12.4 27.7-27.7zm0 58.3c-8 5.2-17.5 8.2-27.7 8.2h-122.1v34.2h119.2c16.9 0 30.6-13.8 30.6-30.7zm0-343.7c0-16.9-13.7-30.7-30.6-30.7h-232.4v295.9c0 1.7-0.3 3.3-1 4.8h236.4c15.2 0 27.6-12.4 27.6-27.7v-57.8z"/></svg>