<?xml version="1.0" encoding="UTF-8"?>
<svg width="700pt" height="700pt" version="1.1" viewBox="0 0 700 700" xmlns="http://www.w3.org/2000/svg">
 <path d="m394.68 294.43c4.0625 60.266-15.648 119.73-54.906 165.63-2.4062 2.8398-5.8438 4.6016-9.5508 4.8984-3.7109 0.30078-7.3867-0.89062-10.215-3.3086-2.8281-2.418-4.5781-5.8633-4.8594-9.5742-0.28516-3.7109 0.92187-7.3789 3.3516-10.199 34.719-40.961 52.012-93.891 48.18-147.45v-31.926c0-5.9609-3.1797-11.465-8.3398-14.445-5.1602-2.9805-11.52-2.9805-16.68 0-5.1602 2.9805-8.3398 8.4844-8.3398 14.445v27.617c0 7.7305-6.2695 14-14 14-7.7305 0-14-6.2695-14-14v-27.617c0-15.961 8.5156-30.711 22.34-38.695 13.824-7.9805 30.855-7.9805 44.68 0 13.824 7.9844 22.34 22.734 22.34 38.695zm-75.797 33.344c-7.5586-1.543-14.949 3.2852-16.57 10.828-9.3281 44.469-39.75 81.594-81.512 99.492-7.1133 3.0352-10.418 11.262-7.3828 18.375 3.0352 7.1094 11.262 10.418 18.375 7.3828 24.719-10.594 46.523-26.98 63.57-47.785 17.043-20.801 28.824-45.402 34.348-71.723 0.76172-3.6328 0.050781-7.4219-1.9805-10.527-2.0312-3.1094-5.2148-5.2812-8.8477-6.043zm108.09-117.59c-6.9766 3.3359-9.9258 11.695-6.5898 18.676 5.0391 10.5 7.6641 21.996 7.6836 33.645v31.926c1.8164 52.117-10.457 103.77-35.52 149.5-1.8828 3.207-2.4102 7.0273-1.4648 10.625 0.94141 3.5977 3.2773 6.668 6.4883 8.5391 3.2109 1.8711 7.0352 2.3867 10.629 1.4336 3.5938-0.95313 6.6602-3.2969 8.5195-6.5156 27.617-49.988 41.211-106.51 39.348-163.58v-31.926c-0.03125-15.836-3.5898-31.469-10.418-45.762-3.3555-6.957-11.707-9.8906-18.676-6.5586zm-155.04 99.598v-47.277c-0.015625-18.422 6.4922-36.254 18.363-50.344 11.871-14.086 28.348-23.516 46.504-26.621 18.16-3.1055 36.832 0.31641 52.711 9.6562 6.6602 3.9297 15.242 1.7109 19.168-4.9453 3.9258-6.6602 1.7109-15.242-4.9492-19.172-21.574-12.699-46.945-17.355-71.625-13.141-24.676 4.2109-47.066 17.023-63.203 36.16-16.141 19.141-24.984 43.371-24.969 68.406v47.277c0.070312 16.105-4.8984 31.832-14.211 44.973-9.3086 13.145-22.496 23.047-37.715 28.32-6.4688 2.2266-10.383 8.8008-9.2578 15.547 1.125 6.7461 6.957 11.695 13.797 11.703 1.543-0.003906 3.0781-0.25781 4.5391-0.75391 20.742-7.1641 38.723-20.637 51.426-38.531 12.703-17.895 19.496-39.312 19.422-61.258zm218.97 93.488c-7.3516-2.3516-15.223 1.6641-17.637 8.9961-3.6523 11.227-7.8867 22.258-12.688 33.047-3.125 7.0664 0.070313 15.328 7.1367 18.457 7.0664 3.125 15.332-0.070313 18.457-7.1367 5.1992-11.66 9.7812-23.586 13.727-35.727 2.3828-7.3555-1.6445-15.246-8.9961-17.637zm-22.395-259.37v-0.003907c-31.469-31.34-74.094-48.914-118.51-48.863-23.855-0.054688-47.441 5.0391-69.152 14.93-6.9297 3.2656-9.9492 11.492-6.7773 18.465 3.1719 6.9727 11.359 10.102 18.371 7.0195 25.898-11.383 54.609-14.777 82.449-9.7461s53.543 18.262 73.82 37.992c26.137 26.238 40.789 61.773 40.742 98.809v40.824c0.085937 21.328-1.625 42.629-5.1133 63.668-1.2734 7.6172 3.8555 14.824 11.465 16.121 7.6094 1.2969 14.832-3.8086 16.152-11.414 3.7383-22.598 5.5742-45.469 5.4961-68.375v-40.824c0.054687-44.461-17.551-87.121-48.945-118.61zm-271.96 179.88c3.7148 0.003906 7.2773-1.4727 9.9023-4.0977s4.1016-6.1875 4.0977-9.9023v-47.277c-0.09375-37.004 14.617-72.508 40.852-98.602 5.3047-5.4922 5.2305-14.227-0.17188-19.625-5.3984-5.4023-14.129-5.4766-19.625-0.17188-15.598 15.512-27.965 33.961-36.387 54.285s-12.727 42.113-12.668 64.113v47.277c-0.003906 3.7148 1.4727 7.2773 4.0977 9.9023s6.1875 4.1016 9.9023 4.0977z"/>
</svg>
