<svg version="1.2" xmlns="http://www.w3.org/2000/svg" viewBox="0 0 32 32" width="32" height="32"><style>.A{fill:none}</style><path class="A" d="m0 0h32v32h-32z"/><path  d="m5.7 4.5q0.1 0 0.2 0.1q0.1 0 0.2 0.1q0 0 0.1 0.1l9.8 9.8l9.8-9.8q0.1-0.1 0.1-0.1q0.1-0.1 0.2-0.1q0.1-0.1 0.2-0.1q0.1 0 0.2 0q0.3 0 0.6 0.1q0.2 0.2 0.3 0.5q0.1 0.3 0.1 0.6q-0.1 0.3-0.3 0.5l-9.8 9.8l9.8 9.8q0.3 0.3 0.3 0.7q0 0.4-0.3 0.7q-0.3 0.3-0.7 0.3q-0.4 0-0.7-0.3l-9.8-9.8l-9.8 9.8q-0.3 0.3-0.7 0.3q-0.4 0-0.7-0.3q-0.3-0.3-0.3-0.7q0-0.4 0.3-0.7l9.8-9.8l-9.8-9.8q-0.2-0.2-0.3-0.5q0-0.3 0.1-0.6q0.1-0.3 0.3-0.4q0.3-0.2 0.6-0.2q0.1 0 0.2 0z"/></svg>