<?xml version="1.0" encoding="utf-8"?>
<!-- Generator: Adobe Illustrator 16.0.0, SVG Export Plug-In . SVG Version: 6.00 Build 0)  -->
<!DOCTYPE svg PUBLIC "-//W3C//DTD SVG 1.1//EN" "http://www.w3.org/Graphics/SVG/1.1/DTD/svg11.dtd">
<svg version="1.1" id="Layer_1" xmlns="http://www.w3.org/2000/svg" xmlns:xlink="http://www.w3.org/1999/xlink" x="0px" y="0px"
	 width="700px" height="700px" viewBox="0 0 700 700" enable-background="new 0 0 700 700" xml:space="preserve">
<path d="M580.72,56.559H119.28c-7.734,0-14,6.27-14,14v311.919c0,3.711,1.473,7.273,4.098,9.898
	c2.629,2.625,6.188,4.102,9.902,4.102h141.68v78.962h-53.762v28h285.6v-28h-53.762v-78.962h141.68c3.715,0,7.273-1.477,9.902-4.102
	c2.625-2.625,4.098-6.188,4.098-9.898V70.559c0-3.711-1.473-7.273-4.098-9.898c-2.629-2.625-6.188-4.102-9.902-4.102H580.72z
	 M566.72,281.119H133.28V84.559h433.44V281.119z"/>
</svg>
