<svg version="1.2" xmlns="http://www.w3.org/2000/svg" viewBox="0 0 512 512" width="512" height="512"><style></style><path fill-rule="evenodd" d="m428.9 14.1c4.9 4.9 7.6 11.5 7.6 18.4v445.7c0 7.2-2.9 14.2-8 19.3c-5.1 5.1-12 8-19.2 8h-322.4c-2.9 0-5.7-1.2-7.7-3.2c-2.1-2.1-3.2-4.8-3.2-7.7v-477.2c0-2.9 1.1-5.6 3.2-7.7c2-2 4.8-3.2 7.7-3.2h323.6c6.9 0 13.5 2.8 18.4 7.6zm-14.2 18.4c0-2.3-1.8-4.2-4.2-4.2h-312.7v455.4h311.5c3 0 5.4-2.5 5.4-5.5z"/><path fill-rule="evenodd" d="m342.6 99.4c24.4 24.4 38.1 57.5 38.2 92.1c0 34.5-13.7 67.6-38.2 92c-24.4 24.4-57.5 38.1-92 38.1c-34.6 0-67.7-13.7-92.1-38.1c-24.4-24.4-38.1-57.5-38.1-92c0-34.6 13.7-67.7 38.1-92.1c24.4-24.4 57.5-38.1 92.1-38.1c34.5 0 67.6 13.7 92 38.1zm-5.5 26.9c-11.9-15.8-27.9-28-46.3-35.4c14.1 27.8 21.5 58.5 21.6 89.6h46c-2-19.6-9.4-38.4-21.3-54.2zm-46.5 76.1h-80c2.3 56.4 22.1 97.4 40 97.4c17.8 0 37.7-41 40-97.4zm0-21.9c-2.3-56.4-22.2-97.4-40-97.4c-17.9 0-37.7 41-40 97.4zm-126.5-54.2c-11.9 15.8-19.3 34.6-21.3 54.2h46c0.1-31.1 7.5-61.8 21.5-89.6c-18.3 7.4-34.3 19.6-46.2 35.4zm0 130.3c11.9 15.8 27.9 28 46.2 35.4c-14-27.8-21.4-58.5-21.5-89.6h-46c2 19.6 9.4 38.4 21.3 54.2zm173 0c11.9-15.8 19.3-34.6 21.3-54.2h-46c-0.1 31.1-7.5 61.8-21.5 89.6c18.3-7.4 34.3-19.6 46.2-35.4z"/><path  d="m380.8 362.6c0 6.1-4.9 10.9-10.9 10.9h-236.2c-6 0-10.9-4.8-10.9-10.9c0-6 4.9-10.9 10.9-10.9h236.2c6 0 10.9 4.9 10.9 10.9z"/><path  d="m380.8 405.2c0 6.1-4.9 10.9-10.9 10.9h-236.2c-6 0-10.9-4.8-10.9-10.9c0-6 4.9-10.9 10.9-10.9h236.2c6 0 10.9 4.9 10.9 10.9z"/></svg>