<?xml version="1.0" encoding="UTF-8"?>
<svg width="700pt" height="700pt" version="1.1" viewBox="0 0 700 700" xmlns="http://www.w3.org/2000/svg">
 <g fill-rule="evenodd">
  <path d="m510.04 120h-400c-10.605 0.003906-20.773 4.2188-28.273 11.719-7.5 7.4961-11.715 17.668-11.719 28.273v320l105.84-94.16c3.2695-3.2578 7.5625-5.2852 12.156-5.7383 4.5938-0.45312 9.2031 0.69531 13.043 3.2539l106.4 70.914 148.4-148.39c2.9688-2.9688 6.793-4.9297 10.938-5.6055 4.1406-0.67188 8.3906-0.027344 12.148 1.8477l71.023 77.855v-219.98c0-10.609-4.2148-20.785-11.719-28.289-7.5039-7.5-17.68-11.715-28.289-11.715zm-400-40.004c-21.219-0.007812-41.574 8.4141-56.582 23.418-15.012 15.004-23.441 35.355-23.441 56.578v320c0 21.219 8.4258 41.566 23.43 56.57 15.004 15 35.352 23.43 56.566 23.43h400.03c21.215-0.007812 41.555-8.4375 56.551-23.441 14.996-15 23.422-35.344 23.422-56.559v-320c0-21.211-8.4258-41.555-23.422-56.559-14.996-15-35.336-23.434-56.551-23.438zm160 180c0 15.914-6.3203 31.176-17.574 42.43-11.25 11.25-26.512 17.57-42.426 17.57-15.914 0-31.176-6.3203-42.43-17.57-11.25-11.254-17.574-26.516-17.574-42.43 0-15.914 6.3242-31.176 17.574-42.43 11.254-11.25 26.516-17.574 42.43-17.574 15.914 0 31.176 6.3242 42.426 17.574 11.254 11.254 17.574 26.516 17.574 42.43z"/>
  <path d="m189.96 40.004h400c10.609 0 20.785 4.2188 28.289 11.719 7.5 7.5039 11.715 17.68 11.715 28.289v319.99c0 10.609-4.2148 20.785-11.715 28.289-7.5039 7.5-17.68 11.715-28.289 11.715v40.008c21.219 0 41.566-8.4297 56.57-23.438 15.004-15.004 23.43-35.355 23.426-56.574v-320c0-21.219-8.4258-41.566-23.43-56.57-15.004-15-35.352-23.43-56.566-23.43h-400c-21.219 0-41.566 8.4297-56.566 23.43-15.004 15.004-23.434 35.352-23.434 56.57h40.008c0.003906-10.609 4.2188-20.777 11.715-28.277 7.5-7.5 17.672-11.715 28.277-11.719z"/>
 </g>
</svg>
