<svg version="1.2" xmlns="http://www.w3.org/2000/svg" viewBox="0 0 512 512" width="512" height="512"><style></style><path fill-rule="evenodd" d="m256 502.5c-136.3 0-246.5-110.2-246.5-246.5c0-136.3 110.2-246.5 246.5-246.5c136.3 0 246.5 110.2 246.5 246.5c0 136.3-110.2 246.5-246.5 246.5zm23.3-172.1h-43.5v37.5h43.5zm55.2-123c0-42.5-34.5-77-77-77c-42.5 0-76.9 34.5-76.9 77h44c0-18.3 14.7-32.9 32.9-32.9c18.2 0 32.9 14.6 32.9 32.9c0 18.2-14.7 32.9-32.9 32.9h-21.7v62.2h44v-21.2c31.9-9.7 54.7-39 54.7-73.9z"/></svg>