<svg version="1.2" xmlns="http://www.w3.org/2000/svg" viewBox="0 0 512 512" width="512" height="512"><style></style><path  d="m173.1 298.3v144.9c0 25-20.2 45.2-45.2 45.2c-25 0-45.3-20.2-45.3-45.2v-144.9c0-25 20.2-45.3 45.3-45.3c25 0 45.2 20.3 45.2 45.3zm256.3 0v144.9c0 25-20.2 45.2-45.2 45.2c-25 0-45.3-20.2-45.3-45.2v-144.9c0-25 20.3-45.3 45.3-45.3c25 0 45.2 20.3 45.2 45.3zm74 46.5v57.6c0 31.8-25.8 57.6-57.6 57.6v-172.7c0 0 0.4 0 0.6 0v-51.1c0-105-85.4-190.4-190.4-190.4c-105 0-190.4 85.4-190.4 190.4c0 0 0.4 50.4 0.6 50.4v172.7c-31.8 0-57.6-25.8-57.6-57.6v-57.5c0-23.7 14.3-44.1 34.8-52.9v-55.1c0-117.3 95.4-212.6 212.6-212.6c117.2 0 212.6 95.3 212.6 212.6v55.8c20.5 8.8 34.8 29.1 34.8 52.8z"/></svg>