<?xml version="1.0" encoding="utf-8"?>
<!-- Generator: Adobe Illustrator 16.0.0, SVG Export Plug-In . SVG Version: 6.00 Build 0)  -->
<!DOCTYPE svg PUBLIC "-//W3C//DTD SVG 1.1//EN" "http://www.w3.org/Graphics/SVG/1.1/DTD/svg11.dtd">
<svg version="1.1" id="Layer_1" xmlns="http://www.w3.org/2000/svg" xmlns:xlink="http://www.w3.org/1999/xlink" x="0px" y="0px"
	 width="700px" height="700px" viewBox="0 0 700 700" enable-background="new 0 0 700 700" xml:space="preserve">
<g>
	<path d="M325.43,280.4l42.652-17.059l6.5,16.25L331.93,296.65L325.43,280.4z"/>
	<g>
		<g>
			<path d="M607.16,184.45l-166.25-70c-2.133-0.875-4.52-0.875-6.652,0l-135.54,54.25c-5.602-0.789-11.199-1.313-16.801-1.664
				l4.113-13.563l0.004,0.004c20.879-7.457,36.992-24.363,43.438-45.574c6.445-21.215,2.461-44.227-10.742-62.039
				c-13.202-17.809-34.062-28.312-56.233-28.312c-22.172,0-43.031,10.504-56.234,28.312c-13.203,17.812-17.188,40.824-10.742,62.039
				c6.445,21.211,22.559,38.117,43.438,45.574l4.113,13.563c-5.074,0-10.238,0.789-15.312,1.398l-128.1-53.988
				c-2.703-1.129-5.789-0.832-8.227,0.789c-2.445,1.609-3.922,4.336-3.938,7.262v341.25c0.004,3.512,2.105,6.68,5.336,8.051
				l166.25,70c2.133,0.875,4.52,0.875,6.652,0l171.76-68.602l162.93,68.602c1.059,0.43,2.184,0.668,3.324,0.699
				c2.32,0,4.547-0.922,6.188-2.563s2.563-3.867,2.563-6.188v-341.25C612.493,188.989,610.392,185.821,607.16,184.45L607.16,184.45z
				 M210,87.501c-0.023-13.105,4.859-25.746,13.688-35.438c8.824-9.691,20.953-15.73,34.008-16.93
				c13.051-1.199,26.078,2.527,36.523,10.445c10.445,7.917,17.551,19.457,19.918,32.352c2.367,12.891-0.172,26.199-7.121,37.312
				c-6.949,11.117-17.801,19.227-30.43,22.746c-2.902,0.809-5.184,3.059-6.035,5.949L262.5,170.8l-8.051-26.863
				c-0.852-2.89-3.133-5.14-6.035-5.949c-11.035-3.074-20.762-9.672-27.695-18.785C213.781,110.086,210.02,98.953,210,87.501
				L210,87.501z M253.75,301.791l-6.914-2.887l-6.734,16.098l13.648,5.688v94.852l-28.699-11.988l-6.301,16.449l35,14.522v86.013
				L105,457.979v-86.016l28.176,11.813L140,367.502l-35-14.523v-94.766l8.051,3.324l6.738-16.102L105,239.228v-103.52l92.312,39.289
				c-18.113,5.074-31.062,13.738-31.062,26.25c0,22.574,43.75,33.602,87.5,35V301.791z M262.5,218.752
				c-51.273,0-77.438-12.773-78.75-17.5c1.137-4.199,22.051-15.051,64.488-17.5l5.512,20.039c1.09,3.73,4.512,6.297,8.398,6.297
				c3.891,0,7.313-2.566,8.402-6.297l5.863-19.602c42.438,2.102,63.352,12.949,64.488,16.977
				C339.937,205.979,313.772,218.752,262.5,218.752L262.5,218.752z M428.75,239.053l-18.023,7.262l6.563,16.188l11.461-4.551v94.852
				l-39.112,15.664l6.477,16.535l32.637-13.302v86.103l-157.5,63v-86.102l39.113-15.664l-6.477-16.535l-32.637,13.301v-94.852
				l18.023-7.262l-6.563-16.188l-11.461,4.551v-65.801c43.75-1.313,87.5-12.336,87.5-35c0-12.074-12.074-20.562-29.227-26.25
				l99.227-39.551V239.053z M595,301.791l-8.051-3.324l-6.738,16.535L595,321.213v94.328l-28.176-11.813L560,420.002l35,14.699
				v86.012l-148.75-62.734v-86.016l28.698,12.074l6.739-16.535l-35-14.875v-94.414l6.914,2.887l6.297-16.098l-13.648-5.773v-103.52
				L595,198.27V301.791z"/>
			<path d="M495.58,278.93l6.793-16.129l42.336,17.832l-6.793,16.129L495.58,278.93z"/>
			<path d="M155.33,279.46l6.793-16.129l42.336,17.832l-6.793,16.129L155.33,279.46z"/>
		</g>
		<path d="M297.5,87.5c0-9.281-3.688-18.184-10.25-24.75c-6.566-6.563-15.469-10.25-24.75-10.25s-18.184,3.688-24.75,10.25
			c-6.563,6.566-10.25,15.469-10.25,24.75s3.688,18.184,10.25,24.75c6.566,6.563,15.469,10.25,24.75,10.25s18.184-3.688,24.75-10.25
			C293.813,105.684,297.5,96.781,297.5,87.5z M245,87.5c0-4.641,1.844-9.094,5.125-12.375S257.859,70,262.5,70
			s9.094,1.844,12.375,5.125S280,82.859,280,87.5s-1.844,9.094-5.125,12.375S267.141,105,262.5,105s-9.094-1.844-12.375-5.125
			S245,92.141,245,87.5z"/>
	</g>
</g>
</svg>
