<svg version="1.2" xmlns="http://www.w3.org/2000/svg" viewBox="0 0 512 512" width="512" height="512"><style>.A{fill:#bc982f}</style><path class="A" d="m184.3 311.5c1.5 5.6-1.9 13-8 14.1q-32.9 6.1-65.7 12.3q-18.6 3.4-37.1 6.9c-4.4 0.8-9.3 1-12.6-2.7q-2.5-2.8-5-5.6q-6.6-7.6-13.3-15.1c-5.2-5.8-4-13.7 2.3-18q13-9 26-17.9q-1.2 9-2.3 18q-26.9-21.7-53.8-43.5c-5.6-4.6-3.7-14.8 2.4-18q13.3-7 26.6-14c4.5-2.4 8.6-5 14-3.6q3.8 1 7.5 2q39.4 10.2 78.7 20.5q-4.4 0.6-8.8 1.2c23.8-14.3 48.3-27.7 72.9-40.8c3.5-1.8 8.1-2.3 11.5 0q17.9 12 35.8 23.9h-11.6q9.3-4.6 18.5-9.3q36.5-18.4 73-36.8q1.3 10.5 2.7 21q-27.3-8.6-54.5-17.2c-4.9-1.6-8.5-5.8-8.5-11.1c0-3.7 2.2-8.3 5.7-9.9c23.2-10.7 46.5-21.3 70.1-31.1c12.9-5.4 25.9-10.6 39.2-14.9c6.4-2.1 12.9-4.2 19.5-5.2c21.3-3.2 44-2.8 64.5 4.5c6.9 2.5 13.8 5.5 19.9 9.5c3.9 2.5 10.1 5.8 10.7 10.7c0.2 1.1 0.5 2.6 0.5 3.8c-0.1 2.4-0.5 5-1.3 7.3c-3.1 9.4-9.5 17.4-16.3 24.5c-13.8 14.2-30.6 25.6-47.3 35.9c-30.6 18.9-63.2 34.5-96.1 48.8c-54.8 24-111.1 44.7-167.9 63.9c-5.9 2-12.5-2.2-14.1-8c-1.7-6.3 2.1-12.1 8-14.1c44.8-15.2 89.4-31.3 133.1-49.2q4.7-1.9 9.3-3.8q2.1-0.9 4.2-1.8c0.6-0.2 3-1.3 0 0q1-0.4 2-0.8q8.2-3.5 16.4-7.1c9.9-4.4 19.7-8.8 29.5-13.5c15.9-7.6 31.7-15.6 47.1-24.2c11.4-6.5 22.5-13.2 33.3-20.7q3.2-2.2 6.4-4.6q1.6-1.1 3.1-2.3q0.7-0.5 1.3-1c-3.7 2.8-1.6 1.2-0.7 0.6c3.2-2.6 6.4-5.3 9.5-8.1c4.6-4 9-8.4 12.8-13.2c1.3-1.7-2.1 2.7-1.1 1.4q0.2-0.3 0.5-0.7q0.4-0.6 0.9-1.3q0.9-1.2 1.7-2.5q1.3-2 2.3-4.3c0.5-1 1.3-3-0.7 1.8q0.2-0.5 0.3-0.9q0.3-0.7 0.6-1.5q0.3-1.2 0.5-2.4c-0.8 5.5-0.3 2.9-0.3 1.5c0-1.6 0.2 1.7 0.4 2.6q2.6 3.4 5.3 6.9c-3.1-2.4-6.3-4.5-9.7-6.4q-2.4-1.4-5-2.5q-1-0.6-2.1-1c2.9 1.2 0.4 0.2-0.2-0.1c-6.4-2.4-13-4.2-19.7-5.3q-1.5-0.3-2.9-0.5c3.5 0.5 1 0.1 0.2 0.1q-2.4-0.3-4.8-0.5q-4.2-0.4-8.5-0.4q-7.5-0.1-14.9 0.6q-1.5 0.1-3.1 0.3c-1.1 0.1-4.4 0.6 0.4-0.1q-1.7 0.2-3.5 0.5c-1.7 0.3-3.3 0.7-5 1.1c-12.4 3.3-24.6 7.7-36.5 12.4q-5.3 2.1-10.6 4.3q-2.5 1-5 2q-1.3 0.5-2.5 1c-0.4 0.2-3.3 1.4-0.6 0.3q-10.6 4.5-21.1 9.2c-13.5 6-27 12.1-40.4 18.3q-1.4-10.5-2.7-21q27.2 8.7 54.5 17.3c4.9 1.5 8.4 5.8 8.4 11.1c0 3.8-2.1 8.1-5.7 9.9q-9.2 4.6-18.4 9.3q-36.5 18.3-73 36.7c-3.5 1.8-8 2.4-11.6 0q-17.9-11.9-35.8-23.8h11.6c-21.7 11.5-43.2 23.4-64.4 35.7c-5.1 3-11 7.8-17.3 6.1q-4-1-8-2q-39.3-10.3-78.6-20.5q4.4-0.6 8.8-1.2q-15.7 8.3-31.4 16.5q1.2-9 2.4-18q26.8 21.7 53.7 43.4c3.1 2.6 3.9 7.6 2.9 11.2c-0.8 3.1-2.7 5.1-5.2 6.9q-13 8.9-26 17.9q1.2-9 2.3-18q9.2 10.3 18.3 20.7q-5.6-1.5-11.2-3q12.1-2.3 24.2-4.5q40-7.5 80-14.9c6.2-1.2 12.4 1.6 14.2 8z"/><path class="A" d="m351 189.3c3 5.1 1.4 12.9-4.1 15.7q-9.2 4.6-18.5 9.3q-36.5 18.3-73 36.7c-3.5 1.8-8 2.4-11.5 0q-7.6-5-15.2-10.1c-19-12.6-37.8-25.3-56.7-38q-32.6-21.9-65.2-43.8c-7.3-4.9-7.6-15 0-19.8q13.3-8.5 26.6-16.9c4.8-3.1 9.6-7.1 15.8-4.9q4.7 1.6 9.4 3.2q20.5 7.3 41.1 14.5q42.8 15 85.5 30c19.5 6.8 39.3 12.6 58.9 18.8c6 1.9 9.7 7.9 8 14.1c-1.6 5.9-8.1 9.9-14.1 8c-18.2-5.7-36.7-11-54.8-17.3q-36.4-12.8-72.8-25.6q-34-11.9-68-23.8q4.5-0.6 8.9-1.2q-16.5 10.4-32.9 20.9v-19.8q3.4 2.2 6.8 4.5q39.6 26.7 79.2 53.3c17 11.4 34 22.7 51 34.1h-11.6q9.2-4.6 18.4-9.3q36.5-18.4 73-36.8c5.6-2.8 12.5-1.5 15.8 4.2z"/><path class="A" d="m96.2 356.9c3.2 5.5 1.1 12.4-4.2 15.7q-19.2 11.9-38.4 23.9c-5.3 3.3-12.6 1.1-15.7-4.1c-3.3-5.6-1.2-12.5 4.1-15.8q19.2-11.9 38.4-23.8c5.4-3.3 12.7-1.2 15.8 4.1z"/><path class="A" d="m44.1 345c3.3 5.5 1.2 12.4-4.1 15.7q-7.7 4.9-15.4 9.8c-5.3 3.4-12.7 1.1-15.7-4.1c-3.3-5.6-1.2-12.4 4.1-15.7q7.7-4.9 15.4-9.8c5.3-3.4 12.7-1.2 15.7 4.1z"/><path class="A" d="m467.8 125.2c3.4 5.8 1 12.1-4.1 15.7q-14.9 10.5-29.8 21c-5.1 3.6-12.7 1-15.7-4.1c-3.4-5.7-1-12.1 4.1-15.7q14.9-10.5 29.8-21c5.1-3.6 12.8-0.9 15.7 4.1z"/></svg>