<svg version="1.2" xmlns="http://www.w3.org/2000/svg" viewBox="0 0 512 512" width="512" height="512"><style></style><path fill-rule="evenodd" d="m493.1 258.9c10.6 21.3 9.5 46.6-2.9 67c-12.5 20.3-34.5 32.8-58.3 33h-10.7c-4.7 0-9.1-1.9-12.4-5.2c-3.3-3.2-5.1-7.7-5.1-12.3v-101.9c-7.5-209.7-284.6-209.7-292.1 0c0 20.3-0.1 64.7 0 84.9c0.4 57.1 41 106.1 96.3 105.9h34.7c6.2 0.1 11.9 3.4 14.9 8.8c3.1 5.4 3.1 11.9 0 17.3c-3 5.4-8.7 8.7-14.9 8.9h-34.7c-29.8-0.6-58.7-11.3-81.7-30.3c-23-19-38.9-45.3-45-74.6c-89.8 2.7-94.3-135.7-3.8-138.4c25.9-232.4 333.3-233.4 360.4-1c23.7 2.3 44.6 16.6 55.3 37.9zm-416.5-1.9c-40.9 1.8-39.9 67.3 0 68.4zm385.7 47.7c4.6-9.5 4.6-20.6 0-30c-4.6-9.5-13.3-16.4-23.6-18.6v67.1c10.3-2.2 19-9.1 23.6-18.5zm-204.7 3.8c-6.6-0.1-12.8-3.7-16.1-9.5c-3.3-5.8-3.3-12.9 0-18.7c3.3-5.8 9.5-9.4 16.1-9.5c6.7 0.1 12.8 3.7 16.1 9.5c3.3 5.8 3.3 12.9 0 18.7c-3.3 5.8-9.4 9.4-16.1 9.5zm-51.1-18.8c-0.1 6.6-3.7 12.7-9.5 16c-5.8 3.4-12.9 3.4-18.7 0c-5.8-3.3-9.4-9.4-9.5-16c0.1-6.7 3.7-12.8 9.5-16.1c5.8-3.3 12.9-3.3 18.7 0c5.8 3.3 9.4 9.4 9.5 16.1zm121.1 18.8c-6.6-0.1-12.7-3.7-16.1-9.5c-3.3-5.8-3.3-12.9 0-18.7c3.4-5.8 9.5-9.4 16.1-9.5c6.7 0.1 12.8 3.7 16.1 9.5c3.3 5.8 3.3 12.9 0 18.7c-3.3 5.8-9.4 9.4-16.1 9.5z"/></svg>