<?xml version="1.0" encoding="utf-8"?>
<!-- Generator: Adobe Illustrator 16.0.0, SVG Export Plug-In . SVG Version: 6.00 Build 0)  -->
<!DOCTYPE svg PUBLIC "-//W3C//DTD SVG 1.1//EN" "http://www.w3.org/Graphics/SVG/1.1/DTD/svg11.dtd">
<svg version="1.1" id="Layer_1" xmlns="http://www.w3.org/2000/svg" xmlns:xlink="http://www.w3.org/1999/xlink" x="0px" y="0px"
	 width="512px" height="512px" viewBox="0 0 512 512" enable-background="new 0 0 512 512" xml:space="preserve">
<g>
	<path d="M180.2,182.6h-38.6c3.9-43.1,31.9-79.5,70-95.7C194.2,108.2,182.5,142.9,180.2,182.6L180.2,182.6z"/>
	<path d="M200.4,182.6c2.2-55.4,26.9-100.2,55.4-100.2c28.601,0,52.7,44.8,55.5,100.2H200.4z"/>
	<path d="M180.8,202.2c1.7,39.8,13.4,74.5,30.8,95.8c-38.6-16.2-66.1-52.6-70-95.8H180.8z"/>
	<path d="M369,182.6h-38.7c-1.7-39.7-13.399-74.4-30.8-95.7C338.2,103.1,366.2,139.5,369,182.6z"/>
	<path d="M449.6,40.4v431.2c0,16.2-12.899,29.101-29.1,29.101H90.6c-16.2,0-29.1-12.9-29.1-29.101V40.4c0-16.2,12.9-29.1,29.1-29.1
		h329.9C436.7,11.3,449.6,24.2,449.6,40.4z M389.1,414.5c0-5.1-3.899-9.5-9.5-9.5H132.1c-5.1,0-9.5,3.9-9.5,9.5c0,5,3.9,9.5,9.5,9.5
		h247.5C384.6,424,389.1,419.5,389.1,414.5z M389.1,377c0-6.2-5-11.2-11.199-11.2H133.2c-6.2,0-11.2,5-11.2,11.2
		c0,6.1,5,11.2,11.2,11.2h244.7C384.1,388.2,389.1,383.1,389.1,377z M389.1,192.2c0-73.4-59.899-133.9-133.3-133.9
		c-73.9,0-133.8,60.5-133.8,133.9C122,266.1,181.9,326,255.8,326C329.2,326,389.1,266.1,389.1,192.2z"/>
	<path d="M310.7,202.2c-2.2,55.5-26.9,100.3-55.4,100.3c-28.6,0-52.7-44.8-55.5-100.3H310.7z"/>
	<path d="M330.9,202.2h38.6c-3.9,43.2-31.9,79.6-70,95.8C317.4,276.2,329.2,242,330.9,202.2z"/>
</g>
</svg>
