<?xml version="1.0" encoding="utf-8"?>
<!-- Generator: Adobe Illustrator 16.0.0, SVG Export Plug-In . SVG Version: 6.00 Build 0)  -->
<!DOCTYPE svg PUBLIC "-//W3C//DTD SVG 1.1//EN" "http://www.w3.org/Graphics/SVG/1.1/DTD/svg11.dtd">
<svg version="1.1" id="Layer_1" xmlns="http://www.w3.org/2000/svg" xmlns:xlink="http://www.w3.org/1999/xlink" x="0px" y="0px"
	 width="700px" height="700px" viewBox="0 0 700 700" enable-background="new 0 0 700 700" xml:space="preserve">
<path d="M262.5,437.5c6.961-0.008,13.633-2.777,18.555-7.695c4.918-4.922,7.688-11.594,7.695-18.555V245h-0.078
	c0.027-2.309-0.867-4.535-2.484-6.188l-70-70c-1.648-1.617-3.875-2.516-6.188-2.484v-0.078h-96.25
	c-6.961,0.008-13.633,2.777-18.555,7.695c-4.918,4.922-7.688,11.594-7.695,18.555v218.75c0.008,6.961,2.777,13.633,7.695,18.555
	c4.922,4.918,11.594,7.688,18.555,7.695H262.5z M218.75,196.12l40.129,40.129H218.75V196.12z M105,411.25V192.5
	c0.004-4.832,3.918-8.746,8.75-8.75h87.5V245c0,2.32,0.922,4.547,2.563,6.188s3.867,2.563,6.188,2.563h61.25v157.5
	c-0.004,4.832-3.918,8.746-8.75,8.75H113.75C108.918,419.996,105.004,416.082,105,411.25z"/>
<path d="M297.5,455H131.25v17.5H297.5c6.961-0.008,13.633-2.777,18.555-7.695c4.918-4.922,7.688-11.594,7.695-18.555V227.5
	c-0.008-6.961-2.777-13.633-7.695-18.555c-4.922-4.918-11.594-7.688-18.555-7.695h-8.75v17.5h8.75
	c4.832,0.004,8.746,3.918,8.75,8.75v218.75C306.246,451.081,302.332,454.995,297.5,455L297.5,455z"/>
<path d="M341.25,481.25c-0.004,4.832-3.918,8.746-8.75,8.75H166.25v17.5H332.5c6.961-0.008,13.633-2.777,18.555-7.695
	c4.918-4.922,7.688-11.594,7.695-18.555V245h-17.5V481.25z"/>
<path d="M376.25,516.25c-0.004,4.832-3.918,8.746-8.75,8.75H201.25v17.5H367.5c6.961-0.008,13.633-2.777,18.555-7.695
	c4.918-4.922,7.688-11.594,7.695-18.555V280h-17.5V516.25z"/>
<path d="M157.5,201.25h26.25v17.5H157.5V201.25z"/>
<path d="M122.5,201.25H140v17.5h-17.5V201.25z"/>
<path d="M157.5,236.25h26.25v17.5H157.5V236.25z"/>
<path d="M122.5,236.25H140v17.5h-17.5V236.25z"/>
<path d="M236.25,271.25h17.5v17.5h-17.5V271.25z"/>
<path d="M157.5,271.25h61.25v17.5H157.5V271.25z"/>
<path d="M122.5,271.25H140v17.5h-17.5V271.25z"/>
<path d="M236.25,306.25h17.5v17.5h-17.5V306.25z"/>
<path d="M157.5,306.25h61.25v17.5H157.5V306.25z"/>
<path d="M122.5,306.25H140v17.5h-17.5V306.25z"/>
<path d="M236.25,341.25h17.5v17.5h-17.5V341.25z"/>
<path d="M157.5,341.25h61.25v17.5H157.5V341.25z"/>
<path d="M122.5,341.25H140v17.5h-17.5V341.25z"/>
<path d="M236.25,376.25h17.5v17.5h-17.5V376.25z"/>
<path d="M157.5,376.25h61.25v17.5H157.5V376.25z"/>
<path d="M122.5,376.25H140v17.5h-17.5V376.25z"/>
<path d="M411.25,402.5h52.5c6.961-0.008,13.633-2.777,18.555-7.695c4.918-4.922,7.688-11.594,7.695-18.555V257.37l20.063,20.062
	l12.375-12.371l-41.188-41.184l-41.188,41.188l12.375,12.371l20.062-20.066v118.88c-0.004,4.832-3.918,8.746-8.75,8.75h-52.5
	L411.25,402.5z"/>
<path d="M542,184.18c-2.055-16.992-10.262-32.645-23.063-44.008c-12.805-11.363-29.323-17.645-46.44-17.668h-9.082
	c-2.969-38.445-25.211-72.77-59.09-91.188s-74.777-18.418-108.66,0s-56.121,52.742-59.09,91.188h-9.082
	c-14.785-0.012-29.383,3.262-42.75,9.578l7.434,15.844c11.043-5.223,23.102-7.926,35.316-7.922h26.25v-8.75
	c0-34.387,18.344-66.16,48.125-83.354c29.781-17.191,66.47-17.191,96.25,0c29.781,17.195,48.125,48.969,48.125,83.354v8.75h26.25
	c13.918,0.016,27.267,5.551,37.105,15.396c9.844,9.839,15.379,23.188,15.395,37.105v8.75h8.75
	c16.238,0.02,31.806,6.48,43.289,17.961c11.48,11.484,17.941,27.051,17.961,43.289c0,29.438-26.905,52.5-61.25,52.5h-26.25v17.5
	h26.25c44.16,0,78.75-30.746,78.75-70c-0.023-19.449-7.234-38.207-20.245-52.664c-13.017-14.457-30.91-23.594-50.25-25.66H542z"/>
<path d="M411.25,315H455v17.5h-43.75V315z"/>
</svg>
