<?xml version="1.0" encoding="utf-8"?>
<!-- Generator: Adobe Illustrator 16.0.0, SVG Export Plug-In . SVG Version: 6.00 Build 0)  -->
<!DOCTYPE svg PUBLIC "-//W3C//DTD SVG 1.1//EN" "http://www.w3.org/Graphics/SVG/1.1/DTD/svg11.dtd">
<svg version="1.1" id="Layer_1" xmlns="http://www.w3.org/2000/svg" xmlns:xlink="http://www.w3.org/1999/xlink" x="0px" y="0px"
	 width="700px" height="700px" viewBox="0 0 700 700" enable-background="new 0 0 700 700" xml:space="preserve">
<path d="M244.75,172.54c-3.344-3.055-5.336-7.316-5.535-11.844c-0.203-4.523,1.406-8.945,4.465-12.285l104.14-113.78
	c3.238-3.531,7.809-5.539,12.599-5.539c4.793,0,9.363,2.008,12.598,5.539l104.15,113.78c4.121,4.5,5.527,10.859,3.688,16.68
	c-1.84,5.816-6.641,10.215-12.603,11.531c-5.957,1.316-12.168-0.645-16.285-5.145l-74.461-81.355v302.36
	c-0.117,6.023-3.398,11.543-8.637,14.523s-11.66,2.98-16.897,0c-5.238-2.98-8.52-8.5-8.633-14.523V90.123l-74.461,81.355
	c-3.059,3.34-7.32,5.328-11.844,5.527c-4.527,0.199-8.945-1.406-12.285-4.465H244.75z M610.48,328.05c-4.531,0-8.875,1.797-12.078,5
	s-5,7.551-5,12.078v151.64h-486.8v-151.64c0-6.102-3.254-11.738-8.539-14.793c-5.285-3.051-11.793-3.051-17.078,0
	c-5.285,3.055-8.543,8.691-8.543,14.793v168.71c0,4.531,1.801,8.875,5.004,12.078s7.547,5.004,12.078,5.004h520.959
	c4.531,0,8.875-1.801,12.078-5.004s5.004-7.547,5.004-12.078v-168.71c0-4.527-1.801-8.875-5.004-12.078
	c-3.203-3.203-7.547-5-12.078-5H610.48z"/>
</svg>
