<svg version="1.2" xmlns="http://www.w3.org/2000/svg" viewBox="0 0 512 512" width="512" height="512"><style></style><path fill-rule="evenodd" d="m256 7.1c66 0.1 129.2 26.4 175.9 73c46.7 46.7 72.9 109.9 73 175.9c-0.1 63.5-24.4 124.7-68.1 170.9c-43.7 46.1-103.3 73.9-166.8 77.5q-7 0.5-14 0.5c-66 0-129.3-26.2-176-72.9c-46.7-46.7-72.9-110-72.9-176c0.1-66 26.4-129.2 73-175.9c46.7-46.7 109.9-72.9 175.9-73zm174.5 362.8q0 0 0 0q0 0 0 0zm0 0c22.3-33.8 34.2-73.4 34.1-113.9c0-55.3-22-108.4-61.1-147.5c-39.2-39.1-92.2-61.1-147.5-61.1c-55.4 0-108.4 22-147.5 61.1c-39.2 39.1-61.1 92.2-61.1 147.5c-0.2 40.5 11.7 80.1 34 113.9c48-43 110.2-66.8 174.6-66.8c64.4 0 126.5 23.8 174.5 66.8z"/><path  d="m343.4 182c0.9 24-7.9 47.5-24.2 65.1c-16.4 17.7-39.1 28.2-63.2 29.1c-24.1-0.9-46.8-11.4-63.2-29.1c-16.3-17.6-25.1-41.1-24.2-65.1c-0.9-24.1 7.9-47.5 24.2-65.2c16.4-17.6 39.1-28 63.2-29c24.1 1 46.8 11.4 63.1 29c16.4 17.7 25.2 41.1 24.3 65.2z"/></svg>